<?xml version="1.0" encoding="utf-8"?>
<!-- Generator: Adobe Illustrator 23.0.0, SVG Export Plug-In . SVG Version: 6.00 Build 0)  -->
<svg version="1.1" id="Layer_1" xmlns="http://www.w3.org/2000/svg" xmlns:xlink="http://www.w3.org/1999/xlink" x="0px" y="0px"
	 viewBox="0 0 1920 1080" style="enable-background:new 0 0 1920 1080;" xml:space="preserve">
<style type="text/css">
	.st0{fill:#FFFFFF;}
	.st1{fill:#F08490;}
</style>
<text transform="matrix(1 0 0 1 -1251.542 -269.9307)"><tspan x="0" y="0" style="font-family:'GreatVibes-Regular'; font-size:184.9514px;">Jardim</tspan><tspan x="485.3" y="0" style="font-family:'GreatVibes-Regular'; font-size:184.9514px; letter-spacing:-14;"> </tspan><tspan x="518.4" y="0" style="font-family:'GreatVibes-Regular'; font-size:184.9514px;">da</tspan><tspan x="651" y="0" style="font-family:'GreatVibes-Regular'; font-size:184.9514px; letter-spacing:-18;"> </tspan><tspan x="680.4" y="0" style="font-family:'GreatVibes-Regular'; font-size:184.9514px;">Tia</tspan></text>
<text transform="matrix(1 0 0 1 -1070.1182 -209.4316)" style="font-family:'FranklinGothic-MediumCond'; font-size:38.3505px;">SEU JARDIM VIRTUAL DESDE 2020</text>
<g>
	<path class="st0" d="M-1035.4-42.5l-8,1.5c-9.5,16.4-18.6,38.5-27.4,66.2c-3.3,10.5-8,22.5-14.1,36.2c-6,13.6-12.8,26.2-20.2,37.8
		c-10,15.5-23.3,28.3-39.9,38.4c-16.6,10-31.7,16-45.4,17.8c-6.3,0.9-13.4,1.3-21.5,1.3c-8,0-16.3-1.4-24.8-4.3
		c-13.3-4.4-22.4-11.7-27.4-21.8c-2.2-4.7-3.3-10.2-3.3-16.5s1.7-13.7,5-22.2c2.3-5.7,6.5-11,12.4-15.9c5.9-4.9,10.5-7.5,13.9-7.6
		c1.5-0.1,2.2,0.1,2.2,0.7c-0.1,0.5-0.9,1.1-2.4,1.8c-3.9,1.6-8.3,5.1-13.1,10.5c-4.8,5.4-8,10.9-9.5,16.4
		c-1.5,5.5-2.3,9.7-2.3,12.7c0,9,2.4,16.3,7.2,21.8c3.3,3.7,7.5,7,12.4,10c4.9,3,10.2,5,15.9,6.1c8.4,1.6,15,2.4,20,2.4
		c4.9,0,9.3-0.5,13.1-1.5c8.4-1.8,16.5-4.9,24.3-9.2c7.8-4.3,14.8-9,20.8-14.1c6-5.1,12.1-11.4,18-19c6-7.5,11-14.4,15.1-20.5
		c4.1-6.2,8.4-13.6,12.9-22.2c7.4-14.1,15-30.2,22.7-48.5c9.7-21.7,19.6-40.4,29.6-56.2c-17.1,2.8-34.6,9-52.3,18.5
		c-9,4.8-16.7,10.9-23.1,18.3c-8.3,9.4-12.4,19.4-12.4,30.1c0,5.8,1.4,10.3,4.2,13.5c2.8,3.2,5.7,4.8,8.8,4.8c3.1,0,6.5-0.7,10.2-2
		c3.7-1.4,7-3.7,10-7c4.7-5.4,7-11.7,7-18.7c0-3-0.4-4.9-1.3-5.9c-1.5-1-1.6-1.9-0.4-2.8c1.4-0.7,2.8-0.3,4.3,1.3
		c1.2,2.7,1.8,5.9,1.8,9.5c0,3.6-1.4,7.8-4.1,12.5c-4.6,7.8-10.9,13.1-18.9,15.9c-3.7,1.2-7.2,1.8-10.5,1.8c-5.5,0-10.5-1.8-15-5.4
		c-5.7-4.7-8.5-11-8.5-18.9c0-10,3.6-19.5,10.7-28.7c5.4-7,11.8-12.8,19.1-17.4c7.3-4.6,15.6-8.6,24.9-12.2
		c14.9-5.8,31.1-9.9,48.6-12.2c1.5-2.5,3.7-5.4,6.7-8.7c3-3.3,5.4-5.3,7.4-5.9c2-0.6,3.6-0.9,4.8-0.9c4.3,0,6.5,1.8,6.5,5.5
		c-0.1,3.3-1.5,5.9-4.1,7.7C-1027.1-45.6-1030.8-44-1035.4-42.5z M-1029.7-54.7c-0.2,0-0.5,0.1-0.8,0.2c-0.3,0.1-0.7,0.4-1.3,0.8
		c-0.6,0.4-1.1,0.8-1.6,1.2c-0.5,0.4-1.1,0.9-1.8,1.7c-0.7,0.7-1.2,1.3-1.7,1.8c-0.4,0.4-1,1-1.8,1.8c-0.7,0.8-1.2,1.3-1.5,1.6
		c8.5-1.5,12.7-3.8,12.6-6.8C-1027.7-54-1028.5-54.7-1029.7-54.7z"/>
	<path class="st0" d="M-1019.5,53c-4.1,7.8-6.5,13.7-7.3,17.6c-0.8,3.9-1.2,7-1.2,9.4c0,2.4,0.9,3.6,2.8,3.6c2.3,0,5.2-2.2,8.7-6.5
		c5.1-6.3,10-14.5,15-24.6c0.5-1.1,1-1.7,1.7-1.8c1-0.4,1.5,0,1.5,1.1c0,0.6-0.2,1.4-0.6,2.2c-11.3,22.9-20.9,34.4-28.7,34.4
		c-3.6,0-6.5-1.7-8.7-5.2c-1.1-1.8-1.7-4.3-1.7-7.4c0-3.1,0.6-6.8,1.8-11.3c-9.9,15.9-18.4,23.9-25.5,23.9c-2,0-3.8-0.6-5.4-1.8
		c-3.7-2.6-5.5-7-5.5-13.3c0-12.1,5.2-24.4,15.7-36.8c5.9-6.9,13.2-11.4,21.8-13.5c2.3-0.6,4.6-0.9,6.7-0.9c5.7,0,10.5,2,14.4,5.9
		c1.2,1.4,1.6,2.7,1.1,3.9c-0.5,1.2-1.5,1.7-3.1,1.5c-1.4-4.4-4.3-6.7-8.9-6.7c-5.3,0-11.8,4.2-19.6,12.6
		c-4.4,4.9-8.6,10.7-12.4,17.4c-4.8,8-7.2,14.4-7.2,19.2s1.5,7.2,4.6,7.2c7.4,0,17.1-11.3,29-34c2.3-4.6,4.3-7.7,5.9-9.3
		c1.6-1.7,3.6-2.5,6.1-2.5c0.5,0,1.8,0.2,3.8,0.6c2,0.4,3.5,0.4,4.5,0.2C-1012.3,40.2-1015.5,45.2-1019.5,53z"/>
	<path class="st0" d="M-976.6,13.9c0,5.5-3.5,10.8-10.5,15.7c2.5,0.1,5.8,0.2,9.9,0.2c4.1,0,9.3-0.3,15.6-0.9c0.2,0.4,0.4,1.4,0.4,3
		c0,1.6-0.7,4-2.2,7.1c-1.5,3.1-2.8,5.9-4,8.1c-1.2,2.3-2.3,4.4-3.3,6.5c-1,2-2.2,4.5-3.5,7.5c-1.3,3-2.4,5.7-3.2,8.1
		c-3.1,9.4-2.6,14.1,1.5,14.1c5.2,0,12.8-10.3,22.9-30.9c0.9-1.6,1.6-2.2,2.1-1.8s0.8,0.8,0.8,1.4s-0.8,2.5-2.4,5.7
		c-1.6,3.3-3.3,6.6-5.2,10.1c-1.8,3.5-4.7,7.5-8.7,12c-4.7,5.7-9.2,8.5-13.5,8.5c-4.8,0-8.1-2.9-10-8.7c-0.4-1.1-0.6-2.8-0.6-5
		c0-2.2,0.7-5.2,2.1-8.9c1.4-3.7,3.7-8.2,6.8-13.5c3.1-5.3,4.8-8.4,5.2-9.3c0.4-0.9,0.6-1.8,0.6-2.7c0-3.8-4.9-5.9-14.8-6.1
		l-2.2,5.9c-7.8,20.3-15.2,34-22.4,40.9c-1.2,1.1-1.8,0.7-1.8-1.1c0-0.4,0.1-0.8,0.4-1.3c6.9-9.1,12.9-19.9,17.9-32.4
		c5.1-12.5,8.6-24.3,10.5-35.5c0.7-3.8,2.5-5.7,5.2-5.7c2.7,0,4.7,1.7,5.9,5.2C-976.8,11.1-976.6,12.4-976.6,13.9z"/>
	<path class="st0" d="M-914.5,77.3c0,3.9,1.6,5.9,4.8,5.9c5.8,0,13.5-9.7,23.1-29c0.4-0.7,0.7-1.5,1-2.2c0.3-0.7,0.8-1.2,1.5-1.5
		c0.7-0.2,1.1-0.1,1.4,0.5c0.2,0.6,0.1,1.5-0.4,2.7c-9.9,22.9-19.9,34.4-30,34.4c-3.3,0-6-1.5-8-4.4c-2-3-3-5.9-3-8.8
		c0-2.9,0.3-5.6,0.9-8c-7.2,11.8-13.3,18.6-18.5,20.2c-1.5,0.6-2.9,0.9-4.3,0.9c-1.4,0-2.8-0.2-4.2-0.6c-6-1.6-9.1-6.4-9.1-14.4
		c0-5.4,1.4-11.4,4.2-18c2.8-6.6,6.7-12.9,11.7-19c5.1-6,11.2-10.1,18.3-12.2c2.6-0.9,5.6-1.3,9.2-1.3s7.4,1.1,11.7,3.3
		c8.4-15.8,15.5-30.4,21.5-43.8c1.7-4.1,3.4-6.7,5.1-7.9c1.7-1.2,3.2-1.8,4.6-1.8c1.4,0,2.3,0,2.6,0c0.3,0,1.5,0.2,3.5,0.5
		c2,0.3,3.6,0.4,4.7,0.3c-2.8,2.6-10.4,15.2-22.6,37.7c-15.5,28.9-24.9,48.1-28.1,57.7C-913.9,72-914.5,75-914.5,77.3z M-905.4,28.7
		c-1.6-1.6-3.9-2.4-6.8-2.4c-2.9,0-6.9,2.2-12.1,6.5c-8.3,6.9-15.1,15.4-20.5,25.5c-3.6,6.7-5.4,12.1-5.4,16.5c0,2,0.4,3.8,1.2,5.4
		c0.8,1.6,2.1,2.4,3.8,2.4c4.2,0,9.4-4.3,15.5-12.9C-923.5,60.9-915.4,47.3-905.4,28.7z"/>
	<path class="st0" d="M-878.4,84c2.3,0,4.8-1.2,7.4-3.5c4.6-4.6,10.4-13.9,17.4-27.9c0.9-1.8,1.7-2.4,2.6-1.7
		c0.2,0.2,0.4,0.6,0.4,1.2c0,0.6-0.5,1.9-1.5,4.1c-1,2.2-1.9,4.1-2.7,5.8c-0.8,1.7-2.3,4.5-4.6,8.4c-2.3,3.9-4.3,6.9-6.2,9
		c-5.1,5.8-9.8,8.7-14.3,8.7c-4.5,0-7.7-1.4-9.7-4.1c-2-2.7-3-5.7-3-9.1s0.8-7,2.4-10.9l11.8-30.1c0.2-0.7,0.4-1.7,0.4-3
		c0-1.2-0.7-2.8-2.2-4.8l10.2-0.2c2.8,0,4.5,0.5,5,1.6c0.5,1,0.1,2.7-1.1,4.9L-881,67c-2.1,4.6-3.1,8.4-3.1,11.7
		C-884.2,82.2-882.3,84-878.4,84z M-860.3,16.1c-1.7,1.5-3.6,2.2-5.7,2.2c-2.1,0-3.8-0.7-5-2.2c-1.2-1.5-1.7-3.3-1.5-5.4
		c0.4-2.1,1.4-3.9,3.1-5.4c1.7-1.5,3.6-2.2,5.7-2.2c2.1,0,3.8,0.7,5.1,2.2c1.3,1.5,1.8,3.3,1.4,5.4
		C-857.5,12.9-858.6,14.6-860.3,16.1z"/>
	<path class="st0" d="M-766,27.4c-15,26.8-22.6,44-22.6,51.8c0,3.5,1.2,5.2,3.5,5.2c3,0,6.3-2.2,10.2-6.7c5.8-7,10.8-15.5,15.2-25.3
		c0.7-1.7,1.5-2.4,2.2-2c0.7,0.4,1.1,0.9,1.1,1.5c0,0.6-0.6,2.2-1.8,4.6c-1.2,2.5-2.2,4.4-3,5.9s-2.4,4.3-4.9,8.5
		c-2.5,4.2-4.7,7.3-6.5,9.2c-1.8,2-4.1,3.9-6.8,5.8c-2.8,1.9-5.9,2.9-9.4,2.9s-6.5-1.7-9-5.2c-1.1-1.6-1.7-3.8-1.7-6.6
		s0.6-6.1,1.8-10.1c1.2-3.9,4.6-10.4,10.2-19.2c1.4-2.2,2-4,2-5.3c0-1.3-1-1.9-3.1-1.9c-2,0-5.7,2.5-11,7.4
		c-5.3,4.9-10.9,11.6-16.7,20c-5.9,8.4-9.3,15.1-10.4,20.2c-2.1,0-3.6-0.9-4.6-2.6c-1-1.7-1.5-3.2-1.5-4.4c0-5.1,3.4-14.7,10.2-28.9
		c2.2-4.7,3.4-7.9,3.5-9.5c0.1-1.7-0.1-2.5-0.6-2.6c-0.6-0.1-1.3,0.2-2.3,0.6c-2.2,1.1-5.6,3.8-10.2,8.1
		c-8.6,7.9-17.1,19.9-25.5,36.1c-0.6,1.4-1.4,2.2-2.3,2.5c-0.9,0.3-2.7,0.5-5.5,0.6c-2.7,0.1-4.5,0.4-5.4,0.9
		c2.2-4.3,6.1-12.4,11.7-24.2c10-21.2,16.6-33.4,20-36.6c1.5-1.5,3.5-2.2,6.1-2.2c0.5,0,1.8,0.2,3.8,0.6c2,0.4,3.5,0.4,4.5,0.2
		c-4.6,2.5-12,14.1-22.4,34.8c5.8-7.1,10-11.8,12.5-14.1c2.5-2.2,4.4-3.9,5.6-5c1.2-1.1,2.2-2,2.9-2.6c0.7-0.6,1.7-1.5,3-2.7
		c1.3-1.2,2.3-2,3-2.6c0.7-0.6,1.6-1.3,2.9-2.3c1.2-1,2.2-1.6,2.9-1.9c0.7-0.3,1.6-0.8,2.8-1.6c1.2-0.7,2-1.1,2.6-1.1
		c0.6,0,1.3-0.2,2.3-0.5c1-0.3,1.7-0.2,2,0.3c2.5,1,3.7,2.5,3.7,4.6c0,1.8-2.1,6.6-6.3,14.2c-4.2,7.6-6.9,12.7-8.1,15.2
		c5.4-6.8,10.6-12.4,15.5-16.7c4.9-4.4,10.8-8.4,17.5-12.1c6.7-3.7,11.6-5.5,14.7-5.5C-767.1,27-766.5,27.2-766,27.4z"/>
	<path class="st0" d="M-687.6,77.3c0,3.9,1.6,5.9,4.8,5.9c5.8,0,13.5-9.7,23.1-29c0.4-0.7,0.7-1.5,1-2.2c0.3-0.7,0.8-1.2,1.5-1.5
		c0.7-0.2,1.1-0.1,1.4,0.5c0.2,0.6,0.1,1.5-0.4,2.7c-9.9,22.9-19.9,34.4-30,34.4c-3.3,0-6-1.5-8-4.4c-2-3-3-5.9-3-8.8
		c0-2.9,0.3-5.6,0.9-8c-7.2,11.8-13.3,18.6-18.5,20.2c-1.5,0.6-2.9,0.9-4.3,0.9c-1.4,0-2.8-0.2-4.2-0.6c-6-1.6-9.1-6.4-9.1-14.4
		c0-5.4,1.4-11.4,4.2-18c2.8-6.6,6.7-12.9,11.7-19c5.1-6,11.2-10.1,18.3-12.2c2.6-0.9,5.6-1.3,9.2-1.3s7.4,1.1,11.7,3.3
		c8.4-15.8,15.5-30.4,21.5-43.8c1.7-4.1,3.4-6.7,5.1-7.9c1.7-1.2,3.2-1.8,4.6-1.8c1.4,0,2.3,0,2.6,0c0.3,0,1.5,0.2,3.5,0.5
		c2,0.3,3.6,0.4,4.7,0.3c-2.8,2.6-10.4,15.2-22.6,37.7c-15.5,28.9-24.9,48.1-28.1,57.7C-687,72-687.6,75-687.6,77.3z M-678.5,28.7
		c-1.6-1.6-3.9-2.4-6.8-2.4c-2.9,0-6.9,2.2-12.1,6.5c-8.3,6.9-15.1,15.4-20.5,25.5c-3.6,6.7-5.4,12.1-5.4,16.5c0,2,0.4,3.8,1.2,5.4
		c0.8,1.6,2.1,2.4,3.8,2.4c4.2,0,9.4-4.3,15.5-12.9C-696.6,60.9-688.5,47.3-678.5,28.7z"/>
	<path class="st0" d="M-611.9,53c-4.1,7.8-6.5,13.7-7.3,17.6c-0.8,3.9-1.2,7-1.2,9.4c0,2.4,0.9,3.6,2.8,3.6c2.3,0,5.2-2.2,8.7-6.5
		c5.1-6.3,10-14.5,15-24.6c0.5-1.1,1-1.7,1.7-1.8c1-0.4,1.5,0,1.5,1.1c0,0.6-0.2,1.4-0.6,2.2c-11.3,22.9-20.9,34.4-28.7,34.4
		c-3.6,0-6.5-1.7-8.7-5.2c-1.1-1.8-1.7-4.3-1.7-7.4c0-3.1,0.6-6.8,1.8-11.3c-9.9,15.9-18.4,23.9-25.5,23.9c-2,0-3.8-0.6-5.4-1.8
		c-3.7-2.6-5.5-7-5.5-13.3c0-12.1,5.2-24.4,15.7-36.8c5.9-6.9,13.2-11.4,21.8-13.5c2.3-0.6,4.6-0.9,6.7-0.9c5.7,0,10.5,2,14.4,5.9
		c1.2,1.4,1.6,2.7,1.1,3.9c-0.5,1.2-1.5,1.7-3.1,1.5c-1.4-4.4-4.3-6.7-8.9-6.7c-5.3,0-11.8,4.2-19.6,12.6
		c-4.4,4.9-8.6,10.7-12.4,17.4c-4.8,8-7.2,14.4-7.2,19.2s1.5,7.2,4.6,7.2c7.4,0,17.1-11.3,29-34c2.3-4.6,4.3-7.7,5.9-9.3
		c1.6-1.7,3.6-2.5,6.1-2.5c0.5,0,1.8,0.2,3.8,0.6c2,0.4,3.5,0.4,4.5,0.2C-604.7,40.2-607.9,45.2-611.9,53z"/>
	<path class="st0" d="M-331.5-20.3c7.6,0,11.5-1.8,11.5-5.5c0-1.8,0.6-2.8,1.9-2.8s1.9,1.5,1.9,4.5c0,3-1.7,5.3-5.2,6.9
		c-3.5,1.6-6.5,2.4-9.2,2.4c-2.7,0-4.8-0.1-6.6-0.4c-18.1-2.3-33.7-6.3-46.6-11.8c-8.8,13.8-16.6,32.2-23.5,55.1
		c-2.6,8.3-6.3,17.2-11,26.8c-4.7,9.6-9.9,17.5-15.4,23.8C-439,85-445.4,90-452.5,94c-14.1,7.6-30.6,11.5-49.8,11.5
		c-15.5,0-30.1-3.8-43.6-11.5c-13.3-7.5-21.1-19.1-23.3-34.8c-0.2-2.1-0.4-5.2-0.4-9.3c0-4.1,1.2-10,3.6-17.7
		c2.4-7.6,6.9-13.4,13.6-17.4c2.7-1.6,4.7-2.4,6.1-2.4c2.2,0,3.2,1,3,3.1c-0.5,0.6-1.8,1.6-3.8,3.1c-2,1.4-4,2.9-5.8,4.4
		c-1.8,1.5-3.7,3.9-5.5,7.1c-3.2,5.4-4.8,11.5-4.8,18.3c0,15.5,5.3,27.5,15.9,35.9c5.7,4.7,12,8.3,19,10.7c7,2.5,14.1,3.7,21.1,3.7
		c0.2,0,0.6,0,0.9,0c25.5-0.6,46.5-9.9,62.9-27.7c10.4-11.2,24.5-36.6,42.5-76c6.2-13.6,10.1-21.5,11.8-23.9
		c-21.8-6.9-41.4-10.4-58.8-10.4c-17.4,0-31.5,5.2-42.4,15.7c-8.8,8.4-13.1,17.1-13.1,26.3c0,10,4.4,16.3,13.1,19
		c3.1,0.9,5.9,1.3,8.4,1.3c2.5,0,5.4-0.5,8.7-1.4c3.3-0.9,6.4-2.8,9.4-5.7c3-2.9,5.3-5.8,6.8-8.6c1.5-2.8,2.2-5,1.9-6.5V0.6
		c1-0.9,1.8-1.1,2.6-0.8c0.7,0.3,1.1,1.1,1.1,2.3c-1.2,9.6-6.1,16.8-14.6,21.6c-5.2,3.1-10,4.6-14.4,4.6c-4.4,0-8.4-0.6-11.8-1.8
		c-10.1-3.6-16.5-10.4-19.2-20.5c-0.9-3.2-1.3-6.3-1.3-9.4c0-7.4,2.3-14.6,6.8-21.6c8.1-12.6,20.9-20.2,38.3-22.7
		c3.9-0.6,7.7-0.9,11.3-0.9c3.6,0,7.7,0.2,12.5,0.6c4.7,0.4,11,1.6,18.9,3.7c7.8,2.1,15.8,4.5,24,7.3c8.2,2.8,13.1,4.4,14.7,4.9
		c6-7.4,10.5-11.2,13.5-11.3c0.6-0.2,1.4-0.4,2.5-0.4c1,0,1.9,0.9,2.5,2.6c0.6,1.7,0.2,2.8-1.3,3.3c-0.6,0.1-1.4,0.1-2.4-0.2
		c-0.7-0.5-2.3,0.3-4.5,2.3c-2.3,2-4,3.7-5.1,5.1c11.6,3.7,21.8,6.4,30.5,8C-341.7-21.1-335.4-20.3-331.5-20.3z"/>
	<path class="st0" d="M-373.7,84c2.3,0,4.8-1.2,7.4-3.5c4.6-4.6,10.4-13.9,17.4-27.9c0.9-1.8,1.7-2.4,2.6-1.7
		c0.2,0.2,0.4,0.6,0.4,1.2c0,0.6-0.5,1.9-1.5,4.1c-1,2.2-1.9,4.1-2.7,5.8c-0.8,1.7-2.3,4.5-4.6,8.4c-2.3,3.9-4.3,6.9-6.2,9
		c-5.1,5.8-9.8,8.7-14.3,8.7c-4.5,0-7.7-1.4-9.7-4.1c-2-2.7-3-5.7-3-9.1s0.8-7,2.4-10.9l11.8-30.1c0.2-0.7,0.4-1.7,0.4-3
		c0-1.2-0.7-2.8-2.2-4.8l10.2-0.2c2.8,0,4.5,0.5,5,1.6c0.5,1,0.1,2.7-1.1,4.9L-376.3,67c-2.1,4.6-3.1,8.4-3.1,11.7
		C-379.4,82.2-377.5,84-373.7,84z M-355.6,16.1c-1.7,1.5-3.6,2.2-5.7,2.2c-2.1,0-3.8-0.7-5-2.2c-1.2-1.5-1.7-3.3-1.5-5.4
		c0.4-2.1,1.4-3.9,3.1-5.4c1.7-1.5,3.6-2.2,5.7-2.2c2.1,0,3.8,0.7,5.1,2.2c1.3,1.5,1.8,3.3,1.4,5.4
		C-352.8,12.9-353.9,14.6-355.6,16.1z"/>
	<path class="st0" d="M-302,53c-4.1,7.8-6.5,13.7-7.3,17.6c-0.8,3.9-1.2,7-1.2,9.4c0,2.4,0.9,3.6,2.8,3.6c2.3,0,5.2-2.2,8.7-6.5
		c5.1-6.3,10-14.5,15-24.6c0.5-1.1,1-1.7,1.7-1.8c1-0.4,1.5,0,1.5,1.1c0,0.6-0.2,1.4-0.6,2.2c-11.3,22.9-20.9,34.4-28.7,34.4
		c-3.6,0-6.5-1.7-8.7-5.2c-1.1-1.8-1.7-4.3-1.7-7.4c0-3.1,0.6-6.8,1.8-11.3c-9.9,15.9-18.4,23.9-25.5,23.9c-2,0-3.8-0.6-5.4-1.8
		c-3.7-2.6-5.5-7-5.5-13.3c0-12.1,5.2-24.4,15.7-36.8c5.9-6.9,13.2-11.4,21.8-13.5c2.3-0.6,4.6-0.9,6.7-0.9c5.7,0,10.5,2,14.4,5.9
		c1.2,1.4,1.6,2.7,1.1,3.9c-0.5,1.2-1.5,1.7-3.1,1.5c-1.4-4.4-4.3-6.7-8.9-6.7c-5.3,0-11.8,4.2-19.6,12.6
		c-4.4,4.9-8.6,10.7-12.4,17.4c-4.8,8-7.2,14.4-7.2,19.2s1.5,7.2,4.6,7.2c7.4,0,17.1-11.3,29-34c2.3-4.6,4.3-7.7,5.9-9.3
		c1.6-1.7,3.6-2.5,6.1-2.5c0.5,0,1.8,0.2,3.8,0.6s3.5,0.4,4.5,0.2C-294.7,40.2-297.9,45.2-302,53z"/>
</g>
<g>
	<path class="st0" d="M-1070.4,128.7l-3.6,1.3c-0.4-1.4-1-2.4-1.7-3s-1.6-1-2.8-1c-1.1,0-2,0.3-2.6,1c-0.6,0.7-0.9,1.4-0.9,2.3
		c0,0.9,0.3,1.7,1,2.2c0.7,0.6,2,1.2,4.1,2c1.7,0.7,3.1,1.3,4,1.9c0.9,0.6,1.7,1.4,2.3,2.4c0.6,1,0.9,2.2,0.9,3.5
		c0,2.1-0.8,4-2.3,5.5c-1.5,1.5-3.6,2.3-6.4,2.3c-4.7,0-7.6-2.4-8.8-7.2l3.8-1.1c0.7,3.1,2.4,4.7,5.2,4.7c1.4,0,2.4-0.4,3.1-1.1
		c0.7-0.7,1.1-1.6,1.1-2.6c0-0.8-0.2-1.5-0.7-2.1c-0.5-0.6-1.7-1.3-3.6-2.1c-2-0.8-3.5-1.4-4.4-2c-0.9-0.5-1.7-1.3-2.3-2.4
		c-0.6-1-1-2.2-1-3.6c0-2,0.7-3.7,2.1-5.1s3.3-2.1,5.6-2.1C-1074.2,122.5-1071.6,124.6-1070.4,128.7z"/>
	<path class="st0" d="M-1066.1,123h14.6v3.4h-10.4v7.3h8.2v3.4h-8.2v8h10.6v3.5h-14.8V123z"/>
	<path class="st0" d="M-1048.6,123h4.1v15.9c0,1.8,0.1,3.1,0.3,3.9c0.2,0.8,0.6,1.5,1.3,2c0.7,0.5,1.6,0.7,2.7,0.7
		c1.1,0,1.9-0.2,2.5-0.6s1-1,1.3-1.7c0.2-0.7,0.4-2.2,0.4-4.4V123h3.8v15.6c0,2.5-0.2,4.4-0.5,5.8c-0.4,1.3-1.2,2.5-2.5,3.4
		c-1.3,0.9-3,1.3-5.2,1.3c-1.7,0-3.1-0.3-4.4-0.8s-2.2-1.5-2.8-2.7s-1-3.5-1-6.6V123z"/>
	<path class="st0" d="M-1017.7,123h4.2v15.9c0,2.6-0.1,4.6-0.4,5.9c-0.3,1.3-0.9,2.3-1.9,3.1s-2.4,1.2-4.3,1.2
		c-0.9,0-2.1-0.2-3.4-0.5v-3.5c0.9,0.2,1.7,0.4,2.5,0.4c0.9,0,1.6-0.2,2.1-0.5c0.5-0.3,0.8-0.9,1-1.5c0.2-0.7,0.3-2.2,0.3-4.5V123z"
		/>
	<path class="st0" d="M-1004,123h4.7l6.9,25.6h-4.3l-1.6-6.4h-7.5l-1.6,6.4h-4L-1004,123z M-999.2,138.8l-2.9-11.7l-2.9,11.7H-999.2
		z"/>
	<path class="st0" d="M-989.9,123h7.7c2.8,0,4.8,0.6,6.2,1.9c1.3,1.3,2,3.1,2,5.4c0,3.1-1.3,5.4-3.9,6.7l4.9,11.6h-4.6l-4-10.7h-4
		v10.7h-4.2V123z M-985.7,126.3v8.3h3.2c1.4,0,2.5-0.4,3.2-1.2c0.7-0.8,1-1.8,1-3.1c0-2.7-1.4-4-4.2-4H-985.7z"/>
	<path class="st0" d="M-969.6,123h5.8c2.8,0,5,0.5,6.7,1.5c1.7,1,2.9,2.5,3.8,4.4c0.9,1.9,1.3,4.1,1.3,6.5c0,2.5-0.4,4.7-1.2,6.7
		c-0.8,2-1.9,3.5-3.5,4.7c-1.6,1.2-3.8,1.8-6.8,1.8h-6.1V123z M-965.4,126.4v18.8h1.8c2.5,0,4.3-0.9,5.4-2.6c1.1-1.7,1.7-4,1.7-6.8
		c0-6.3-2.3-9.4-7-9.4H-965.4z"/>
	<path class="st0" d="M-948.1,123h4.2v25.6h-4.2V123z"/>
	<path class="st0" d="M-939,123h6.3l5.1,18.4l5.2-18.4h6v25.6h-4v-21.8l-6.1,21.8h-3.1l-6-21.8v21.8h-3.5V123z"/>
	<path class="st0" d="M-907,123h4.4l4.9,20.4l4.9-20.4h3.7l-6.8,25.6l-4.6-0.1L-907,123z"/>
	<path class="st0" d="M-886.7,123h4.2v25.6h-4.2V123z"/>
	<path class="st0" d="M-877.6,123h7.7c2.8,0,4.8,0.6,6.2,1.9c1.3,1.3,2,3.1,2,5.4c0,3.1-1.3,5.4-3.9,6.7l4.9,11.6h-4.6l-4-10.7h-4
		v10.7h-4.2V123z M-873.4,126.3v8.3h3.2c1.4,0,2.5-0.4,3.2-1.2c0.7-0.8,1-1.8,1-3.1c0-2.7-1.4-4-4.2-4H-873.4z"/>
	<path class="st0" d="M-859.9,123h15.6v3.6h-5.7v22h-4.2v-22h-5.7V123z"/>
	<path class="st0" d="M-842.6,123h4.1v15.9c0,1.8,0.1,3.1,0.3,3.9c0.2,0.8,0.6,1.5,1.3,2c0.7,0.5,1.6,0.7,2.7,0.7
		c1.1,0,1.9-0.2,2.5-0.6s1-1,1.3-1.7c0.2-0.7,0.4-2.2,0.4-4.4V123h3.8v15.6c0,2.5-0.2,4.4-0.5,5.8c-0.4,1.3-1.2,2.5-2.5,3.4
		c-1.3,0.9-3,1.3-5.2,1.3c-1.7,0-3.1-0.3-4.4-0.8s-2.2-1.5-2.8-2.7s-1-3.5-1-6.6V123z"/>
	<path class="st0" d="M-817,123h4.7l6.9,25.6h-4.3l-1.6-6.4h-7.5l-1.6,6.4h-4L-817,123z M-812.1,138.8l-2.9-11.7l-2.9,11.7H-812.1z"
		/>
	<path class="st0" d="M-802.9,123h4.2v22h9v3.6h-13.3V123z"/>
	<path class="st0" d="M-780,123h5.8c2.8,0,5,0.5,6.7,1.5c1.7,1,2.9,2.5,3.8,4.4c0.9,1.9,1.3,4.1,1.3,6.5c0,2.5-0.4,4.7-1.2,6.7
		c-0.8,2-1.9,3.5-3.5,4.7c-1.6,1.2-3.8,1.8-6.8,1.8h-6.1V123z M-775.8,126.4v18.8h1.8c2.5,0,4.3-0.9,5.4-2.6c1.1-1.7,1.7-4,1.7-6.8
		c0-6.3-2.3-9.4-7-9.4H-775.8z"/>
	<path class="st0" d="M-758.5,123h14.6v3.4h-10.4v7.3h8.2v3.4h-8.2v8h10.6v3.5h-14.8V123z"/>
	<path class="st0" d="M-725.6,128.7l-3.6,1.3c-0.4-1.4-1-2.4-1.7-3s-1.6-1-2.8-1c-1.1,0-2,0.3-2.6,1c-0.6,0.7-0.9,1.4-0.9,2.3
		c0,0.9,0.3,1.7,1,2.2c0.7,0.6,2,1.2,4.1,2c1.7,0.7,3.1,1.3,4,1.9c0.9,0.6,1.7,1.4,2.3,2.4c0.6,1,0.9,2.2,0.9,3.5
		c0,2.1-0.8,4-2.3,5.5c-1.5,1.5-3.6,2.3-6.4,2.3c-4.7,0-7.6-2.4-8.8-7.2l3.8-1.1c0.7,3.1,2.4,4.7,5.2,4.7c1.4,0,2.4-0.4,3.1-1.1
		c0.7-0.7,1.1-1.6,1.1-2.6c0-0.8-0.2-1.5-0.7-2.1c-0.5-0.6-1.7-1.3-3.6-2.1c-2-0.8-3.5-1.4-4.4-2c-0.9-0.5-1.7-1.3-2.3-2.4
		c-0.6-1-1-2.2-1-3.6c0-2,0.7-3.7,2.1-5.1s3.3-2.1,5.6-2.1C-729.4,122.5-726.8,124.6-725.6,128.7z"/>
	<path class="st0" d="M-721.2,123h5.8c2.8,0,5,0.5,6.7,1.5c1.7,1,2.9,2.5,3.8,4.4c0.9,1.9,1.3,4.1,1.3,6.5c0,2.5-0.4,4.7-1.2,6.7
		c-0.8,2-1.9,3.5-3.5,4.7c-1.6,1.2-3.8,1.8-6.8,1.8h-6.1V123z M-717,126.4v18.8h1.8c2.5,0,4.3-0.9,5.4-2.6c1.1-1.7,1.7-4,1.7-6.8
		c0-6.3-2.3-9.4-7-9.4H-717z"/>
	<path class="st0" d="M-699.7,123h14.6v3.4h-10.4v7.3h8.2v3.4h-8.2v8h10.6v3.5h-14.8V123z"/>
	<path class="st0" d="M-672.3,131.2l-3.8-0.8c0.4-2.6,1.4-4.5,2.8-5.9c1.4-1.3,3.2-2,5.4-2c2.4,0,4.3,0.7,5.6,2.1
		c1.4,1.4,2,3.2,2,5.4c0,2.5-1,5-2.9,7.3s-4.8,4.8-8.5,7.5h11.6l-0.2,3.7h-15.9v-3.7c5-4.3,8.1-7.4,9.5-9.3c1.4-1.9,2.1-3.7,2.1-5.3
		c0-1.2-0.3-2.3-1-3.1c-0.6-0.8-1.5-1.2-2.6-1.2C-670.5,126-671.8,127.8-672.3,131.2z"/>
	<path class="st0" d="M-639.6,135.5c0,4.8-0.7,8.2-2.1,10.4s-3.5,3.2-6.2,3.2c-5.6,0-8.3-4.3-8.3-12.9c0-4.8,0.7-8.2,2.1-10.4
		c1.4-2.1,3.5-3.2,6.2-3.2C-642.4,122.5-639.6,126.9-639.6,135.5z M-644,135.8c0-3.7-0.3-6.4-1-7.9c-0.7-1.5-1.7-2.2-3-2.2
		c-1.3,0-2.3,0.7-3,2.2s-1,4.1-1,7.9c0,4.1,0.4,6.8,1.1,8.1c0.7,1.3,1.7,2,2.9,2c1.3,0,2.3-0.8,3-2.3S-644,139.5-644,135.8z"/>
	<path class="st0" d="M-633.1,131.2l-3.8-0.8c0.4-2.6,1.4-4.5,2.8-5.9c1.4-1.3,3.2-2,5.4-2c2.4,0,4.3,0.7,5.6,2.1
		c1.4,1.4,2,3.2,2,5.4c0,2.5-1,5-2.9,7.3s-4.8,4.8-8.5,7.5h11.6l-0.2,3.7h-15.9v-3.7c5-4.3,8.1-7.4,9.5-9.3c1.4-1.9,2.1-3.7,2.1-5.3
		c0-1.2-0.3-2.3-1-3.1c-0.6-0.8-1.5-1.2-2.6-1.2C-631.3,126-632.7,127.8-633.1,131.2z"/>
	<path class="st0" d="M-600.5,135.5c0,4.8-0.7,8.2-2.1,10.4s-3.5,3.2-6.2,3.2c-5.6,0-8.3-4.3-8.3-12.9c0-4.8,0.7-8.2,2.1-10.4
		c1.4-2.1,3.5-3.2,6.2-3.2C-603.2,122.5-600.5,126.9-600.5,135.5z M-604.8,135.8c0-3.7-0.3-6.4-1-7.9c-0.7-1.5-1.7-2.2-3-2.2
		c-1.3,0-2.3,0.7-3,2.2s-1,4.1-1,7.9c0,4.1,0.4,6.8,1.1,8.1c0.7,1.3,1.7,2,2.9,2c1.3,0,2.3-0.8,3-2.3S-604.8,139.5-604.8,135.8z"/>
</g>
<g>
	<path class="st1" d="M487.6-484.5l-8,1.5c-9.5,16.4-18.6,38.5-27.4,66.2c-3.3,10.5-8,22.5-14.1,36.2c-6,13.6-12.8,26.2-20.2,37.8
		c-10,15.5-23.3,28.3-39.9,38.4c-16.6,10-31.7,16-45.4,17.8c-6.3,0.9-13.4,1.3-21.5,1.3c-8,0-16.3-1.4-24.8-4.3
		c-13.3-4.4-22.4-11.7-27.4-21.8c-2.2-4.7-3.3-10.2-3.3-16.5s1.7-13.7,5-22.2c2.3-5.7,6.5-11,12.4-15.9c5.9-4.9,10.5-7.5,13.9-7.6
		c1.5-0.1,2.2,0.1,2.2,0.7c-0.1,0.5-0.9,1.1-2.4,1.8c-3.9,1.6-8.3,5.1-13.1,10.5c-4.8,5.4-8,10.9-9.5,16.4
		c-1.5,5.5-2.3,9.7-2.3,12.7c0,9,2.4,16.3,7.2,21.8c3.3,3.7,7.5,7,12.4,10c4.9,3,10.2,5,15.9,6.1c8.4,1.6,15,2.4,20,2.4
		c4.9,0,9.3-0.5,13.1-1.5c8.4-1.8,16.5-4.9,24.3-9.2c7.8-4.3,14.8-9,20.8-14.1c6-5.1,12.1-11.4,18-19c6-7.5,11-14.4,15.1-20.5
		c4.1-6.2,8.4-13.6,12.9-22.2c7.4-14.1,15-30.2,22.7-48.5c9.7-21.7,19.6-40.4,29.6-56.2c-17.1,2.8-34.6,9-52.3,18.5
		c-9,4.8-16.7,10.9-23.1,18.3c-8.3,9.4-12.4,19.4-12.4,30.1c0,5.8,1.4,10.3,4.2,13.5c2.8,3.2,5.7,4.8,8.8,4.8c3.1,0,6.5-0.7,10.2-2
		c3.7-1.4,7-3.7,10-7c4.7-5.4,7-11.7,7-18.7c0-3-0.4-4.9-1.3-5.9c-1.5-1-1.6-1.9-0.4-2.8c1.4-0.7,2.8-0.3,4.3,1.3
		c1.2,2.7,1.8,5.9,1.8,9.5c0,3.6-1.4,7.8-4.1,12.5c-4.6,7.8-10.9,13.1-18.9,15.9c-3.7,1.2-7.2,1.8-10.5,1.8c-5.5,0-10.5-1.8-15-5.4
		c-5.7-4.7-8.5-11-8.5-18.9c0-10,3.6-19.5,10.7-28.7c5.4-7,11.8-12.8,19.1-17.4c7.3-4.6,15.6-8.6,24.9-12.2
		c14.9-5.8,31.1-9.9,48.6-12.2c1.5-2.5,3.7-5.4,6.7-8.7c3-3.3,5.4-5.3,7.4-5.9c2-0.6,3.6-0.9,4.8-0.9c4.3,0,6.5,1.8,6.5,5.5
		c-0.1,3.3-1.5,5.9-4.1,7.7C495.9-487.6,492.2-486,487.6-484.5z M493.3-496.7c-0.2,0-0.5,0.1-0.8,0.2c-0.3,0.1-0.7,0.4-1.3,0.8
		c-0.6,0.4-1.1,0.8-1.6,1.2c-0.5,0.4-1.1,0.9-1.8,1.7c-0.7,0.7-1.2,1.3-1.7,1.8c-0.4,0.4-1,1-1.8,1.8c-0.7,0.8-1.2,1.3-1.5,1.6
		c8.5-1.5,12.7-3.8,12.6-6.8C495.3-496,494.5-496.7,493.3-496.7z"/>
	<path class="st1" d="M503.5-389c-4.1,7.8-6.5,13.7-7.3,17.6c-0.8,3.9-1.2,7-1.2,9.4c0,2.4,0.9,3.6,2.8,3.6c2.3,0,5.2-2.2,8.7-6.5
		c5.1-6.3,10-14.5,15-24.6c0.5-1.1,1-1.7,1.7-1.8c1-0.4,1.5,0,1.5,1.1c0,0.6-0.2,1.4-0.6,2.2c-11.3,22.9-20.9,34.4-28.7,34.4
		c-3.6,0-6.5-1.7-8.7-5.2c-1.1-1.8-1.7-4.3-1.7-7.4c0-3.1,0.6-6.8,1.8-11.3c-9.9,15.9-18.4,23.9-25.5,23.9c-2,0-3.8-0.6-5.4-1.8
		c-3.7-2.6-5.5-7-5.5-13.3c0-12.1,5.2-24.4,15.7-36.8c5.9-6.9,13.2-11.4,21.8-13.5c2.3-0.6,4.6-0.9,6.7-0.9c5.7,0,10.5,2,14.4,5.9
		c1.2,1.4,1.6,2.7,1.1,3.9c-0.5,1.2-1.5,1.7-3.1,1.5c-1.4-4.4-4.3-6.7-8.9-6.7c-5.3,0-11.8,4.2-19.6,12.6
		c-4.4,4.9-8.6,10.7-12.4,17.4c-4.8,8-7.2,14.4-7.2,19.2s1.5,7.2,4.6,7.2c7.4,0,17.1-11.3,29-34c2.3-4.6,4.3-7.7,5.9-9.3
		c1.6-1.7,3.6-2.5,6.1-2.5c0.5,0,1.8,0.2,3.8,0.6c2,0.4,3.5,0.4,4.5,0.2C510.7-401.8,507.5-396.8,503.5-389z"/>
	<path class="st1" d="M546.4-428.1c0,5.5-3.5,10.8-10.5,15.7c2.5,0.1,5.8,0.2,9.9,0.2c4.1,0,9.3-0.3,15.6-0.9c0.2,0.4,0.4,1.4,0.4,3
		c0,1.6-0.7,4-2.2,7.1c-1.5,3.1-2.8,5.9-4,8.1c-1.2,2.3-2.3,4.4-3.3,6.5c-1,2-2.2,4.5-3.5,7.5c-1.3,3-2.4,5.7-3.2,8.1
		c-3.1,9.4-2.6,14.1,1.5,14.1c5.2,0,12.8-10.3,22.9-30.9c0.9-1.6,1.6-2.2,2.1-1.8s0.8,0.8,0.8,1.4s-0.8,2.5-2.4,5.7
		c-1.6,3.3-3.3,6.6-5.2,10.1c-1.8,3.5-4.7,7.5-8.7,12c-4.7,5.7-9.2,8.5-13.5,8.5c-4.8,0-8.1-2.9-10-8.7c-0.4-1.1-0.6-2.8-0.6-5
		c0-2.2,0.7-5.2,2.1-8.9c1.4-3.7,3.7-8.2,6.8-13.5c3.1-5.3,4.8-8.4,5.2-9.3c0.4-0.9,0.6-1.8,0.6-2.7c0-3.8-4.9-5.9-14.8-6.1
		l-2.2,5.9c-7.8,20.3-15.2,34-22.4,40.9c-1.2,1.1-1.8,0.7-1.8-1.1c0-0.4,0.1-0.8,0.4-1.3c6.9-9.1,12.9-19.9,17.9-32.4
		c5.1-12.5,8.6-24.3,10.5-35.5c0.7-3.8,2.5-5.7,5.2-5.7c2.7,0,4.7,1.7,5.9,5.2C546.2-430.9,546.4-429.6,546.4-428.1z"/>
	<path class="st1" d="M608.5-364.7c0,3.9,1.6,5.9,4.8,5.9c5.8,0,13.5-9.7,23.1-29c0.4-0.7,0.7-1.5,1-2.2c0.3-0.7,0.8-1.2,1.5-1.5
		c0.7-0.2,1.1-0.1,1.4,0.5c0.2,0.6,0.1,1.5-0.4,2.7c-9.9,22.9-19.9,34.4-30,34.4c-3.3,0-6-1.5-8-4.4c-2-3-3-5.9-3-8.8
		c0-2.9,0.3-5.6,0.9-8c-7.2,11.8-13.3,18.6-18.5,20.2c-1.5,0.6-2.9,0.9-4.3,0.9c-1.4,0-2.8-0.2-4.2-0.6c-6-1.6-9.1-6.4-9.1-14.4
		c0-5.4,1.4-11.4,4.2-18c2.8-6.6,6.7-12.9,11.7-19c5.1-6,11.2-10.1,18.3-12.2c2.6-0.9,5.6-1.3,9.2-1.3s7.4,1.1,11.7,3.3
		c8.4-15.8,15.5-30.4,21.5-43.8c1.7-4.1,3.4-6.7,5.1-7.9c1.7-1.2,3.2-1.8,4.6-1.8c1.4,0,2.3,0,2.6,0c0.3,0,1.5,0.2,3.5,0.5
		c2,0.3,3.6,0.4,4.7,0.3c-2.8,2.6-10.4,15.2-22.6,37.7c-15.5,28.9-24.9,48.1-28.1,57.7C609.1-370,608.5-367,608.5-364.7z
		 M617.6-413.3c-1.6-1.6-3.9-2.4-6.8-2.4c-2.9,0-6.9,2.2-12.1,6.5c-8.3,6.9-15.1,15.4-20.5,25.5c-3.6,6.7-5.4,12.1-5.4,16.5
		c0,2,0.4,3.8,1.2,5.4c0.8,1.6,2.1,2.4,3.8,2.4c4.2,0,9.4-4.3,15.5-12.9C599.5-381.1,607.6-394.7,617.6-413.3z"/>
	<path class="st1" d="M644.6-358c2.3,0,4.8-1.2,7.4-3.5c4.6-4.6,10.4-13.9,17.4-27.9c0.9-1.8,1.7-2.4,2.6-1.7
		c0.2,0.2,0.4,0.6,0.4,1.2c0,0.6-0.5,1.9-1.5,4.1c-1,2.2-1.9,4.1-2.7,5.8c-0.8,1.7-2.3,4.5-4.6,8.4c-2.3,3.9-4.3,6.9-6.2,9
		c-5.1,5.8-9.8,8.7-14.3,8.7c-4.5,0-7.7-1.4-9.7-4.1c-2-2.7-3-5.7-3-9.1s0.8-7,2.4-10.9l11.8-30.1c0.2-0.7,0.4-1.7,0.4-3
		c0-1.2-0.7-2.8-2.2-4.8l10.2-0.2c2.8,0,4.5,0.5,5,1.6c0.5,1,0.1,2.7-1.1,4.9L642-375c-2.1,4.6-3.1,8.4-3.1,11.7
		C638.8-359.8,640.7-358,644.6-358z M662.7-425.9c-1.7,1.5-3.6,2.2-5.7,2.2c-2.1,0-3.8-0.7-5-2.2c-1.2-1.5-1.7-3.3-1.5-5.4
		c0.4-2.1,1.4-3.9,3.1-5.4c1.7-1.5,3.6-2.2,5.7-2.2c2.1,0,3.8,0.7,5.1,2.2c1.3,1.5,1.8,3.3,1.4,5.4
		C665.5-429.1,664.4-427.4,662.7-425.9z"/>
	<path class="st1" d="M757-414.6c-15,26.8-22.6,44-22.6,51.8c0,3.5,1.2,5.2,3.5,5.2c3,0,6.3-2.2,10.2-6.7c5.8-7,10.8-15.5,15.2-25.3
		c0.7-1.7,1.5-2.4,2.2-2c0.7,0.4,1.1,0.9,1.1,1.5c0,0.6-0.6,2.2-1.8,4.6c-1.2,2.5-2.2,4.4-3,5.9s-2.4,4.3-4.9,8.5
		c-2.5,4.2-4.7,7.3-6.5,9.2c-1.8,2-4.1,3.9-6.8,5.8c-2.8,1.9-5.9,2.9-9.4,2.9s-6.5-1.7-9-5.2c-1.1-1.6-1.7-3.8-1.7-6.6
		s0.6-6.1,1.8-10.1c1.2-3.9,4.6-10.4,10.2-19.2c1.4-2.2,2-4,2-5.3c0-1.3-1-1.9-3.1-1.9c-2,0-5.7,2.5-11,7.4
		c-5.3,4.9-10.9,11.6-16.7,20c-5.9,8.4-9.3,15.1-10.4,20.2c-2.1,0-3.6-0.9-4.6-2.6c-1-1.7-1.5-3.2-1.5-4.4c0-5.1,3.4-14.7,10.2-28.9
		c2.2-4.7,3.4-7.9,3.5-9.5c0.1-1.7-0.1-2.5-0.6-2.6c-0.6-0.1-1.3,0.2-2.3,0.6c-2.2,1.1-5.6,3.8-10.2,8.1
		c-8.6,7.9-17.1,19.9-25.5,36.1c-0.6,1.4-1.4,2.2-2.3,2.5c-0.9,0.3-2.7,0.5-5.5,0.6c-2.7,0.1-4.5,0.4-5.4,0.9
		c2.2-4.3,6.1-12.4,11.7-24.2c10-21.2,16.6-33.4,20-36.6c1.5-1.5,3.5-2.2,6.1-2.2c0.5,0,1.8,0.2,3.8,0.6c2,0.4,3.5,0.4,4.5,0.2
		c-4.6,2.5-12,14.1-22.4,34.8c5.8-7.1,10-11.8,12.5-14.1c2.5-2.2,4.4-3.9,5.6-5c1.2-1.1,2.2-2,2.9-2.6c0.7-0.6,1.7-1.5,3-2.7
		c1.3-1.2,2.3-2,3-2.6c0.7-0.6,1.6-1.3,2.9-2.3c1.2-1,2.2-1.6,2.9-1.9c0.7-0.3,1.6-0.8,2.8-1.6c1.2-0.7,2-1.1,2.6-1.1
		c0.6,0,1.3-0.2,2.3-0.5c1-0.3,1.7-0.2,2,0.3c2.5,1,3.7,2.5,3.7,4.6c0,1.8-2.1,6.6-6.3,14.2c-4.2,7.6-6.9,12.7-8.1,15.2
		c5.4-6.8,10.6-12.4,15.5-16.7c4.9-4.4,10.8-8.4,17.5-12.1c6.7-3.7,11.6-5.5,14.7-5.5C755.9-415,756.5-414.8,757-414.6z"/>
	<path class="st1" d="M835.4-364.7c0,3.9,1.6,5.9,4.8,5.9c5.8,0,13.5-9.7,23.1-29c0.4-0.7,0.7-1.5,1-2.2c0.3-0.7,0.8-1.2,1.5-1.5
		c0.7-0.2,1.1-0.1,1.4,0.5c0.2,0.6,0.1,1.5-0.4,2.7c-9.9,22.9-19.9,34.4-30,34.4c-3.3,0-6-1.5-8-4.4c-2-3-3-5.9-3-8.8
		c0-2.9,0.3-5.6,0.9-8c-7.2,11.8-13.3,18.6-18.5,20.2c-1.5,0.6-2.9,0.9-4.3,0.9c-1.4,0-2.8-0.2-4.2-0.6c-6-1.6-9.1-6.4-9.1-14.4
		c0-5.4,1.4-11.4,4.2-18c2.8-6.6,6.7-12.9,11.7-19c5.1-6,11.2-10.1,18.3-12.2c2.6-0.9,5.6-1.3,9.2-1.3s7.4,1.1,11.7,3.3
		c8.4-15.8,15.5-30.4,21.5-43.8c1.7-4.1,3.4-6.7,5.1-7.9c1.7-1.2,3.2-1.8,4.6-1.8c1.4,0,2.3,0,2.6,0c0.3,0,1.5,0.2,3.5,0.5
		c2,0.3,3.6,0.4,4.7,0.3c-2.8,2.6-10.4,15.2-22.6,37.7c-15.5,28.9-24.9,48.1-28.1,57.7C836-370,835.4-367,835.4-364.7z M844.5-413.3
		c-1.6-1.6-3.9-2.4-6.8-2.4c-2.9,0-6.9,2.2-12.1,6.5c-8.3,6.9-15.1,15.4-20.5,25.5c-3.6,6.7-5.4,12.1-5.4,16.5c0,2,0.4,3.8,1.2,5.4
		c0.8,1.6,2.1,2.4,3.8,2.4c4.2,0,9.4-4.3,15.5-12.9C826.4-381.1,834.5-394.7,844.5-413.3z"/>
	<path class="st1" d="M911.1-389c-4.1,7.8-6.5,13.7-7.3,17.6c-0.8,3.9-1.2,7-1.2,9.4c0,2.4,0.9,3.6,2.8,3.6c2.3,0,5.2-2.2,8.7-6.5
		c5.1-6.3,10-14.5,15-24.6c0.5-1.1,1-1.7,1.7-1.8c1-0.4,1.5,0,1.5,1.1c0,0.6-0.2,1.4-0.6,2.2c-11.3,22.9-20.9,34.4-28.7,34.4
		c-3.6,0-6.5-1.7-8.7-5.2c-1.1-1.8-1.7-4.3-1.7-7.4c0-3.1,0.6-6.8,1.8-11.3c-9.9,15.9-18.4,23.9-25.5,23.9c-2,0-3.8-0.6-5.4-1.8
		c-3.7-2.6-5.5-7-5.5-13.3c0-12.1,5.2-24.4,15.7-36.8c5.9-6.9,13.2-11.4,21.8-13.5c2.3-0.6,4.6-0.9,6.7-0.9c5.7,0,10.5,2,14.4,5.9
		c1.2,1.4,1.6,2.7,1.1,3.9c-0.5,1.2-1.5,1.7-3.1,1.5c-1.4-4.4-4.3-6.7-8.9-6.7c-5.3,0-11.8,4.2-19.6,12.6
		c-4.4,4.9-8.6,10.7-12.4,17.4c-4.8,8-7.2,14.4-7.2,19.2s1.5,7.2,4.6,7.2c7.4,0,17.1-11.3,29-34c2.3-4.6,4.3-7.7,5.9-9.3
		c1.6-1.7,3.6-2.5,6.1-2.5c0.5,0,1.8,0.2,3.8,0.6c2,0.4,3.5,0.4,4.5,0.2C918.3-401.8,915.1-396.8,911.1-389z"/>
	<path class="st1" d="M1191.5-462.3c7.6,0,11.5-1.8,11.5-5.5c0-1.8,0.6-2.8,1.9-2.8s1.9,1.5,1.9,4.5c0,3-1.7,5.3-5.2,6.9
		c-3.5,1.6-6.5,2.4-9.2,2.4c-2.7,0-4.8-0.1-6.6-0.4c-18.1-2.3-33.7-6.3-46.6-11.8c-8.8,13.8-16.6,32.2-23.5,55.1
		c-2.6,8.3-6.3,17.2-11,26.8c-4.7,9.6-9.9,17.5-15.4,23.8c-5.5,6.2-11.8,11.3-19,15.3c-14.1,7.6-30.6,11.5-49.8,11.5
		c-15.5,0-30.1-3.8-43.6-11.5c-13.3-7.5-21.1-19.1-23.3-34.8c-0.2-2.1-0.4-5.2-0.4-9.3c0-4.1,1.2-10,3.6-17.7
		c2.4-7.6,6.9-13.4,13.6-17.4c2.7-1.6,4.7-2.4,6.1-2.4c2.2,0,3.2,1,3,3.1c-0.5,0.6-1.8,1.6-3.8,3.1c-2,1.4-4,2.9-5.8,4.4
		c-1.8,1.5-3.7,3.9-5.5,7.1c-3.2,5.4-4.8,11.5-4.8,18.3c0,15.5,5.3,27.5,15.9,35.9c5.7,4.7,12,8.3,19,10.7c7,2.5,14.1,3.7,21.1,3.7
		c0.2,0,0.6,0,0.9,0c25.5-0.6,46.5-9.9,62.9-27.7c10.4-11.2,24.5-36.6,42.5-76c6.2-13.6,10.1-21.5,11.8-23.9
		c-21.8-6.9-41.4-10.4-58.8-10.4c-17.4,0-31.5,5.2-42.4,15.7c-8.8,8.4-13.1,17.1-13.1,26.3c0,10,4.4,16.3,13.1,19
		c3.1,0.9,5.9,1.3,8.4,1.3c2.5,0,5.4-0.5,8.7-1.4c3.3-0.9,6.4-2.8,9.4-5.7c3-2.9,5.3-5.8,6.8-8.6c1.5-2.8,2.2-5,1.9-6.5v-0.4
		c1-0.9,1.8-1.1,2.6-0.8c0.7,0.3,1.1,1.1,1.1,2.3c-1.2,9.6-6.1,16.8-14.6,21.6c-5.2,3.1-10,4.6-14.4,4.6c-4.4,0-8.4-0.6-11.8-1.8
		c-10.1-3.6-16.5-10.4-19.2-20.5c-0.9-3.2-1.3-6.3-1.3-9.4c0-7.4,2.3-14.6,6.8-21.6c8.1-12.6,20.9-20.2,38.3-22.7
		c3.9-0.6,7.7-0.9,11.3-0.9c3.6,0,7.7,0.2,12.5,0.6c4.7,0.4,11,1.6,18.9,3.7c7.8,2.1,15.8,4.5,24,7.3c8.2,2.8,13.1,4.4,14.7,4.9
		c6-7.4,10.5-11.2,13.5-11.3c0.6-0.2,1.4-0.4,2.5-0.4c1,0,1.9,0.9,2.5,2.6c0.6,1.7,0.2,2.8-1.3,3.3c-0.6,0.1-1.4,0.1-2.4-0.2
		c-0.7-0.5-2.3,0.3-4.5,2.3c-2.3,2-4,3.7-5.1,5.1c11.6,3.7,21.8,6.4,30.5,8C1181.3-463.1,1187.6-462.3,1191.5-462.3z"/>
	<path class="st1" d="M1149.3-358c2.3,0,4.8-1.2,7.4-3.5c4.6-4.6,10.4-13.9,17.4-27.9c0.9-1.8,1.7-2.4,2.6-1.7
		c0.2,0.2,0.4,0.6,0.4,1.2c0,0.6-0.5,1.9-1.5,4.1c-1,2.2-1.9,4.1-2.7,5.8c-0.8,1.7-2.3,4.5-4.6,8.4c-2.3,3.9-4.3,6.9-6.2,9
		c-5.1,5.8-9.8,8.7-14.3,8.7c-4.5,0-7.7-1.4-9.7-4.1c-2-2.7-3-5.7-3-9.1s0.8-7,2.4-10.9l11.8-30.1c0.2-0.7,0.4-1.7,0.4-3
		c0-1.2-0.7-2.8-2.2-4.8l10.2-0.2c2.8,0,4.5,0.5,5,1.6c0.5,1,0.1,2.7-1.1,4.9l-14.8,34.6c-2.1,4.6-3.1,8.4-3.1,11.7
		C1143.6-359.8,1145.5-358,1149.3-358z M1167.4-425.9c-1.7,1.5-3.6,2.2-5.7,2.2c-2.1,0-3.8-0.7-5-2.2c-1.2-1.5-1.7-3.3-1.5-5.4
		c0.4-2.1,1.4-3.9,3.1-5.4c1.7-1.5,3.6-2.2,5.7-2.2c2.1,0,3.8,0.7,5.1,2.2c1.3,1.5,1.8,3.3,1.4,5.4
		C1170.2-429.1,1169.1-427.4,1167.4-425.9z"/>
	<path class="st1" d="M1221-389c-4.1,7.8-6.5,13.7-7.3,17.6c-0.8,3.9-1.2,7-1.2,9.4c0,2.4,0.9,3.6,2.8,3.6c2.3,0,5.2-2.2,8.7-6.5
		c5.1-6.3,10-14.5,15-24.6c0.5-1.1,1-1.7,1.7-1.8c1-0.4,1.5,0,1.5,1.1c0,0.6-0.2,1.4-0.6,2.2c-11.3,22.9-20.9,34.4-28.7,34.4
		c-3.6,0-6.5-1.7-8.7-5.2c-1.1-1.8-1.7-4.3-1.7-7.4c0-3.1,0.6-6.8,1.8-11.3c-9.9,15.9-18.4,23.9-25.5,23.9c-2,0-3.8-0.6-5.4-1.8
		c-3.7-2.6-5.5-7-5.5-13.3c0-12.1,5.2-24.4,15.7-36.8c5.9-6.9,13.2-11.4,21.8-13.5c2.3-0.6,4.6-0.9,6.7-0.9c5.7,0,10.5,2,14.4,5.9
		c1.2,1.4,1.6,2.7,1.1,3.9c-0.5,1.2-1.5,1.7-3.1,1.5c-1.4-4.4-4.3-6.7-8.9-6.7c-5.3,0-11.8,4.2-19.6,12.6
		c-4.4,4.9-8.6,10.7-12.4,17.4c-4.8,8-7.2,14.4-7.2,19.2s1.5,7.2,4.6,7.2c7.4,0,17.1-11.3,29-34c2.3-4.6,4.3-7.7,5.9-9.3
		c1.6-1.7,3.6-2.5,6.1-2.5c0.5,0,1.8,0.2,3.8,0.6s3.5,0.4,4.5,0.2C1228.3-401.8,1225.1-396.8,1221-389z"/>
</g>
<g>
	<path class="st1" d="M452.6-313.3l-3.6,1.3c-0.4-1.4-1-2.4-1.7-3s-1.6-1-2.8-1c-1.1,0-2,0.3-2.6,1c-0.6,0.7-0.9,1.4-0.9,2.3
		c0,0.9,0.3,1.7,1,2.2c0.7,0.6,2,1.2,4.1,2c1.7,0.7,3.1,1.3,4,1.9c0.9,0.6,1.7,1.4,2.3,2.4c0.6,1,0.9,2.2,0.9,3.5
		c0,2.1-0.8,4-2.3,5.5c-1.5,1.5-3.6,2.3-6.4,2.3c-4.7,0-7.6-2.4-8.8-7.2l3.8-1.1c0.7,3.1,2.4,4.7,5.2,4.7c1.4,0,2.4-0.4,3.1-1.1
		c0.7-0.7,1.1-1.6,1.1-2.6c0-0.8-0.2-1.5-0.7-2.1c-0.5-0.6-1.7-1.3-3.6-2.1c-2-0.8-3.5-1.4-4.4-2c-0.9-0.5-1.7-1.3-2.3-2.4
		c-0.6-1-1-2.2-1-3.6c0-2,0.7-3.7,2.1-5.1s3.3-2.1,5.6-2.1C448.8-319.5,451.4-317.4,452.6-313.3z"/>
	<path class="st1" d="M456.9-319h14.6v3.4h-10.4v7.3h8.2v3.4h-8.2v8h10.6v3.5h-14.8V-319z"/>
	<path class="st1" d="M474.4-319h4.1v15.9c0,1.8,0.1,3.1,0.3,3.9c0.2,0.8,0.6,1.5,1.3,2c0.7,0.5,1.6,0.7,2.7,0.7
		c1.1,0,1.9-0.2,2.5-0.6s1-1,1.3-1.7c0.2-0.7,0.4-2.2,0.4-4.4V-319h3.8v15.6c0,2.5-0.2,4.4-0.5,5.8c-0.4,1.3-1.2,2.5-2.5,3.4
		c-1.3,0.9-3,1.3-5.2,1.3c-1.7,0-3.1-0.3-4.4-0.8s-2.2-1.5-2.8-2.7s-1-3.5-1-6.6V-319z"/>
	<path class="st1" d="M505.3-319h4.2v15.9c0,2.6-0.1,4.6-0.4,5.9c-0.3,1.3-0.9,2.3-1.9,3.1s-2.4,1.2-4.3,1.2c-0.9,0-2.1-0.2-3.4-0.5
		v-3.5c0.9,0.2,1.7,0.4,2.5,0.4c0.9,0,1.6-0.2,2.1-0.5c0.5-0.3,0.8-0.9,1-1.5c0.2-0.7,0.3-2.2,0.3-4.5V-319z"/>
	<path class="st1" d="M519-319h4.7l6.9,25.6h-4.3l-1.6-6.4h-7.5l-1.6,6.4h-4L519-319z M523.8-303.2l-2.9-11.7l-2.9,11.7H523.8z"/>
	<path class="st1" d="M533.1-319h7.7c2.8,0,4.8,0.6,6.2,1.9c1.3,1.3,2,3.1,2,5.4c0,3.1-1.3,5.4-3.9,6.7l4.9,11.6h-4.6l-4-10.7h-4
		v10.7h-4.2V-319z M537.3-315.7v8.3h3.2c1.4,0,2.5-0.4,3.2-1.2c0.7-0.8,1-1.8,1-3.1c0-2.7-1.4-4-4.2-4H537.3z"/>
	<path class="st1" d="M553.4-319h5.8c2.8,0,5,0.5,6.7,1.5c1.7,1,2.9,2.5,3.8,4.4c0.9,1.9,1.3,4.1,1.3,6.5c0,2.5-0.4,4.7-1.2,6.7
		c-0.8,2-1.9,3.5-3.5,4.7c-1.6,1.2-3.8,1.8-6.8,1.8h-6.1V-319z M557.6-315.6v18.8h1.8c2.5,0,4.3-0.9,5.4-2.6c1.1-1.7,1.7-4,1.7-6.8
		c0-6.3-2.3-9.4-7-9.4H557.6z"/>
	<path class="st1" d="M574.9-319h4.2v25.6h-4.2V-319z"/>
	<path class="st1" d="M584-319h6.3l5.1,18.4l5.2-18.4h6v25.6h-4v-21.8l-6.1,21.8h-3.1l-6-21.8v21.8H584V-319z"/>
	<path class="st1" d="M616-319h4.4l4.9,20.4l4.9-20.4h3.7l-6.8,25.6l-4.6-0.1L616-319z"/>
	<path class="st1" d="M636.3-319h4.2v25.6h-4.2V-319z"/>
	<path class="st1" d="M645.4-319h7.7c2.8,0,4.8,0.6,6.2,1.9c1.3,1.3,2,3.1,2,5.4c0,3.1-1.3,5.4-3.9,6.7l4.9,11.6h-4.6l-4-10.7h-4
		v10.7h-4.2V-319z M649.6-315.7v8.3h3.2c1.4,0,2.5-0.4,3.2-1.2c0.7-0.8,1-1.8,1-3.1c0-2.7-1.4-4-4.2-4H649.6z"/>
	<path class="st1" d="M663.1-319h15.6v3.6H673v22h-4.2v-22h-5.7V-319z"/>
	<path class="st1" d="M680.4-319h4.1v15.9c0,1.8,0.1,3.1,0.3,3.9c0.2,0.8,0.6,1.5,1.3,2c0.7,0.5,1.6,0.7,2.7,0.7
		c1.1,0,1.9-0.2,2.5-0.6s1-1,1.3-1.7c0.2-0.7,0.4-2.2,0.4-4.4V-319h3.8v15.6c0,2.5-0.2,4.4-0.5,5.8c-0.4,1.3-1.2,2.5-2.5,3.4
		c-1.3,0.9-3,1.3-5.2,1.3c-1.7,0-3.1-0.3-4.4-0.8s-2.2-1.5-2.8-2.7s-1-3.5-1-6.6V-319z"/>
	<path class="st1" d="M706-319h4.7l6.9,25.6h-4.3l-1.6-6.4h-7.5l-1.6,6.4h-4L706-319z M710.9-303.2l-2.9-11.7l-2.9,11.7H710.9z"/>
	<path class="st1" d="M720.1-319h4.2v22h9v3.6h-13.3V-319z"/>
	<path class="st1" d="M743-319h5.8c2.8,0,5,0.5,6.7,1.5c1.7,1,2.9,2.5,3.8,4.4c0.9,1.9,1.3,4.1,1.3,6.5c0,2.5-0.4,4.7-1.2,6.7
		c-0.8,2-1.9,3.5-3.5,4.7c-1.6,1.2-3.8,1.8-6.8,1.8H743V-319z M747.2-315.6v18.8h1.8c2.5,0,4.3-0.9,5.4-2.6c1.1-1.7,1.7-4,1.7-6.8
		c0-6.3-2.3-9.4-7-9.4H747.2z"/>
	<path class="st1" d="M764.5-319h14.6v3.4h-10.4v7.3h8.2v3.4h-8.2v8h10.6v3.5h-14.8V-319z"/>
	<path class="st1" d="M797.4-313.3l-3.6,1.3c-0.4-1.4-1-2.4-1.7-3s-1.6-1-2.8-1c-1.1,0-2,0.3-2.6,1c-0.6,0.7-0.9,1.4-0.9,2.3
		c0,0.9,0.3,1.7,1,2.2c0.7,0.6,2,1.2,4.1,2c1.7,0.7,3.1,1.3,4,1.9c0.9,0.6,1.7,1.4,2.3,2.4c0.6,1,0.9,2.2,0.9,3.5
		c0,2.1-0.8,4-2.3,5.5c-1.5,1.5-3.6,2.3-6.4,2.3c-4.7,0-7.6-2.4-8.8-7.2l3.8-1.1c0.7,3.1,2.4,4.7,5.2,4.7c1.4,0,2.4-0.4,3.1-1.1
		c0.7-0.7,1.1-1.6,1.1-2.6c0-0.8-0.2-1.5-0.7-2.1c-0.5-0.6-1.7-1.3-3.6-2.1c-2-0.8-3.5-1.4-4.4-2c-0.9-0.5-1.7-1.3-2.3-2.4
		c-0.6-1-1-2.2-1-3.6c0-2,0.7-3.7,2.1-5.1s3.3-2.1,5.6-2.1C793.6-319.5,796.2-317.4,797.4-313.3z"/>
	<path class="st1" d="M801.8-319h5.8c2.8,0,5,0.5,6.7,1.5c1.7,1,2.9,2.5,3.8,4.4c0.9,1.9,1.3,4.1,1.3,6.5c0,2.5-0.4,4.7-1.2,6.7
		c-0.8,2-1.9,3.5-3.5,4.7c-1.6,1.2-3.8,1.8-6.8,1.8h-6.1V-319z M806-315.6v18.8h1.8c2.5,0,4.3-0.9,5.4-2.6c1.1-1.7,1.7-4,1.7-6.8
		c0-6.3-2.3-9.4-7-9.4H806z"/>
	<path class="st1" d="M823.3-319H838v3.4h-10.4v7.3h8.2v3.4h-8.2v8h10.6v3.5h-14.8V-319z"/>
	<path class="st1" d="M850.7-310.8l-3.8-0.8c0.4-2.6,1.4-4.5,2.8-5.9c1.4-1.3,3.2-2,5.4-2c2.4,0,4.3,0.7,5.6,2.1
		c1.4,1.4,2,3.2,2,5.4c0,2.5-1,5-2.9,7.3s-4.8,4.8-8.5,7.5H863l-0.2,3.7h-15.9v-3.7c5-4.3,8.1-7.4,9.5-9.3c1.4-1.9,2.1-3.7,2.1-5.3
		c0-1.2-0.3-2.3-1-3.1c-0.6-0.8-1.5-1.2-2.6-1.2C852.5-316,851.2-314.2,850.7-310.8z"/>
	<path class="st1" d="M883.4-306.5c0,4.8-0.7,8.2-2.1,10.4s-3.5,3.2-6.2,3.2c-5.6,0-8.3-4.3-8.3-12.9c0-4.8,0.7-8.2,2.1-10.4
		c1.4-2.1,3.5-3.2,6.2-3.2C880.6-319.5,883.4-315.1,883.4-306.5z M879-306.2c0-3.7-0.3-6.4-1-7.9c-0.7-1.5-1.7-2.2-3-2.2
		c-1.3,0-2.3,0.7-3,2.2s-1,4.1-1,7.9c0,4.1,0.4,6.8,1.1,8.1c0.7,1.3,1.7,2,2.9,2c1.3,0,2.3-0.8,3-2.3S879-302.5,879-306.2z"/>
	<path class="st1" d="M889.9-310.8l-3.8-0.8c0.4-2.6,1.4-4.5,2.8-5.9c1.4-1.3,3.2-2,5.4-2c2.4,0,4.3,0.7,5.6,2.1
		c1.4,1.4,2,3.2,2,5.4c0,2.5-1,5-2.9,7.3s-4.8,4.8-8.5,7.5h11.6l-0.2,3.7h-15.9v-3.7c5-4.3,8.1-7.4,9.5-9.3c1.4-1.9,2.1-3.7,2.1-5.3
		c0-1.2-0.3-2.3-1-3.1c-0.6-0.8-1.5-1.2-2.6-1.2C891.7-316,890.3-314.2,889.9-310.8z"/>
	<path class="st1" d="M922.5-306.5c0,4.8-0.7,8.2-2.1,10.4s-3.5,3.2-6.2,3.2c-5.6,0-8.3-4.3-8.3-12.9c0-4.8,0.7-8.2,2.1-10.4
		c1.4-2.1,3.5-3.2,6.2-3.2C919.8-319.5,922.5-315.1,922.5-306.5z M918.2-306.2c0-3.7-0.3-6.4-1-7.9c-0.7-1.5-1.7-2.2-3-2.2
		c-1.3,0-2.3,0.7-3,2.2s-1,4.1-1,7.9c0,4.1,0.4,6.8,1.1,8.1c0.7,1.3,1.7,2,2.9,2c1.3,0,2.3-0.8,3-2.3S918.2-302.5,918.2-306.2z"/>
</g>
<g>
	<path class="st0" d="M452.6,345.9l-15.1,2.8c-18,31.1-35.3,73-51.9,125.6c-6.3,19.9-15.2,42.7-26.7,68.6
		c-11.5,25.8-24.2,49.8-38.2,71.7c-18.9,29.5-44.2,53.7-75.6,72.8c-31.5,19.1-60.2,30.3-86.1,33.9c-11.9,1.6-25.5,2.5-40.7,2.5
		c-15.2,0-30.9-2.7-47-8.1c-25.3-8.4-42.6-22.2-51.9-41.4c-4.2-8.9-6.3-19.3-6.3-31.2c0-11.9,3.2-26,9.5-42.1
		c4.4-10.8,12.3-20.8,23.5-30.2c11.2-9.4,20-14.1,26.3-14.4c2.8-0.2,4.2,0.2,4.2,1.4c-0.2,0.9-1.8,2.1-4.6,3.5
		c-7.5,3-15.8,9.7-24.9,20c-9.1,10.3-15.1,20.6-18.1,31c-2.9,10.4-4.4,18.4-4.4,24c0,17.1,4.6,30.9,13.7,41.4
		c6.3,7,14.1,13.3,23.5,18.9c9.4,5.6,19.4,9.5,30.2,11.6c15.9,3,28.5,4.6,37.9,4.6c9.4,0,17.7-0.9,24.9-2.8
		c15.9-3.5,31.3-9.4,46.1-17.5c14.9-8.2,28-17.1,39.5-26.8c11.5-9.7,22.9-21.7,34.2-36c11.3-14.3,20.9-27.2,28.6-38.9
		c7.7-11.7,15.9-25.7,24.6-42.1c14-26.7,28.4-57.3,43.2-91.9C389.3,415.6,408,380,427,350.1c-32.5,5.4-65.6,17.1-99.3,35.1
		c-17.1,9.1-31.7,20.7-43.9,34.7c-15.7,17.8-23.5,36.8-23.5,57.2c0,11,2.6,19.5,7.9,25.6c5.3,6.1,10.8,9.1,16.7,9.1
		c5.8,0,12.3-1.3,19.3-3.9c7-2.6,13.3-7,18.9-13.3c8.9-10.3,13.3-22.1,13.3-35.4c0-5.6-0.8-9.4-2.5-11.2c-2.8-1.9-3-3.6-0.7-5.3
		c2.6-1.4,5.3-0.6,8.1,2.5c2.3,5.1,3.5,11.2,3.5,18.1c0,6.9-2.6,14.8-7.7,23.7c-8.7,14.7-20.6,24.8-35.8,30.2
		c-7,2.3-13.7,3.5-20,3.5c-10.5,0-20-3.4-28.4-10.2c-10.8-8.9-16.1-20.8-16.1-35.8c0-18.9,6.8-37.1,20.3-54.4
		c10.3-13.3,22.4-24.3,36.3-33c13.9-8.7,29.6-16.4,47.2-23.2c28.3-11,59.1-18.7,92.3-23.2c2.8-4.7,7-10.2,12.6-16.5
		c5.6-6.3,10.3-10.1,14-11.2c3.7-1.2,6.8-1.8,9.1-1.8c8.2,0,12.3,3.5,12.3,10.5c-0.2,6.3-2.8,11.2-7.7,14.6
		C468.4,340,461.5,343.1,452.6,345.9z M463.5,322.7c-0.5,0-1,0.1-1.6,0.4c-0.6,0.2-1.4,0.8-2.5,1.6c-1.1,0.8-2,1.6-3,2.3
		c-0.9,0.7-2,1.8-3.3,3.2c-1.3,1.4-2.3,2.5-3.2,3.3c-0.8,0.8-1.9,2-3.3,3.5c-1.4,1.5-2.3,2.5-2.8,3c16.1-2.8,24.1-7.1,23.9-13
		C467.2,324.1,465.8,322.7,463.5,322.7z"/>
	<path class="st0" d="M482.8,527.1c-7.7,14.9-12.3,26-13.9,33.3c-1.5,7.4-2.3,13.3-2.3,17.9c0,4.6,1.8,6.8,5.3,6.8
		c4.4,0,9.9-4.1,16.5-12.3c9.6-11.9,19.1-27.5,28.4-46.7c0.9-2.1,2-3.3,3.2-3.5c1.9-0.7,2.8,0,2.8,2.1c0,1.2-0.4,2.6-1.1,4.2
		c-21.5,43.5-39.6,65.3-54.4,65.3c-6.8,0-12.3-3.3-16.5-9.8c-2.1-3.5-3.2-8.2-3.2-14c0-5.8,1.2-13,3.5-21.4
		c-18.7,30.2-34.9,45.3-48.4,45.3c-3.7,0-7.1-1.2-10.2-3.5c-7-4.9-10.5-13.3-10.5-25.3c0-22.9,9.9-46.2,29.8-69.8
		c11.2-13.1,25-21.6,41.4-25.6c4.4-1.2,8.7-1.8,12.6-1.8c10.8,0,19.9,3.7,27.4,11.2c2.3,2.6,3,5,2.1,7.4c-0.9,2.3-2.9,3.3-6,2.8
		c-2.6-8.4-8.2-12.6-16.8-12.6c-10.1,0-22.5,8-37.2,23.9c-8.4,9.4-16.3,20.3-23.5,33c-9.1,15.2-13.7,27.4-13.7,36.5
		c0,9.1,2.9,13.7,8.8,13.7c14,0,32.4-21.5,55.1-64.6c4.4-8.7,8.2-14.6,11.2-17.7c3-3.2,6.9-4.7,11.6-4.7c0.9,0,3.3,0.4,7.2,1.1
		c3.9,0.7,6.7,0.8,8.6,0.4C496.5,502.7,490.5,512.2,482.8,527.1z"/>
	<path class="st0" d="M564.2,452.9c0,10.5-6.7,20.5-20,29.8c4.7,0.2,10.9,0.4,18.8,0.4c7.8,0,17.7-0.6,29.6-1.8
		c0.5,0.7,0.7,2.6,0.7,5.6c0,3-1.4,7.5-4.2,13.5c-2.8,6-5.3,11.1-7.5,15.4c-2.2,4.3-4.3,8.4-6.3,12.3c-2,3.9-4.2,8.6-6.7,14.2
		c-2.5,5.6-4.5,10.8-6.1,15.4c-5.8,17.8-4.9,26.7,2.8,26.7c9.8,0,24.3-19.5,43.5-58.6c1.6-3,3-4.2,4-3.5c1.1,0.7,1.6,1.6,1.6,2.6
		c0,1.1-1.5,4.7-4.6,10.9c-3,6.2-6.3,12.6-9.8,19.1c-3.5,6.6-9,14.2-16.5,22.8c-8.9,10.8-17.4,16.1-25.6,16.1
		c-9.1,0-15.4-5.5-18.9-16.5c-0.7-2.1-1.1-5.3-1.1-9.5c0-4.2,1.3-9.8,4-16.8c2.7-7,7-15.6,12.8-25.6c5.8-10.1,9.1-16,9.8-17.7
		c0.7-1.8,1.1-3.4,1.1-5.1c0-7.2-9.4-11.1-28.1-11.6l-4.2,11.2c-14.7,38.6-28.9,64.4-42.5,77.5c-2.3,2.1-3.5,1.4-3.5-2.1
		c0-0.7,0.2-1.5,0.7-2.5c13.1-17.3,24.4-37.8,34-61.4c9.6-23.6,16.3-46.1,20-67.4c1.4-7.2,4.7-10.9,9.8-10.9c5.1,0,8.9,3.3,11.2,9.8
		C563.8,447.6,564.2,450.1,564.2,452.9z"/>
	<path class="st0" d="M682,573.2c0,7.5,3,11.2,9.1,11.2c11,0,25.6-18.4,43.9-55.1c0.7-1.4,1.3-2.8,1.9-4.2c0.6-1.4,1.5-2.3,2.8-2.8
		c1.3-0.5,2.2-0.2,2.6,0.9c0.5,1.1,0.2,2.8-0.7,5.1c-18.7,43.5-37.7,65.3-56.8,65.3c-6.3,0-11.3-2.8-15.1-8.4
		c-3.7-5.6-5.6-11.2-5.6-16.7c0-5.5,0.6-10.6,1.8-15.3c-13.6,22.5-25.3,35.2-35.1,38.2c-2.8,1.2-5.6,1.8-8.2,1.8
		c-2.7,0-5.3-0.4-7.9-1.1c-11.5-3-17.2-12.2-17.2-27.4c0-10.3,2.6-21.7,7.9-34.2c5.3-12.5,12.7-24.5,22.3-36
		c9.6-11.5,21.2-19.2,34.7-23.2c4.9-1.6,10.7-2.5,17.4-2.5c6.7,0,14.1,2.1,22.3,6.3c15.9-29.9,29.5-57.7,40.7-83.1
		c3.3-7.7,6.5-12.7,9.6-14.9c3.2-2.2,6.1-3.3,8.8-3.3c2.7,0,4.3,0,4.9,0c0.6,0,2.8,0.3,6.7,0.9c3.9,0.6,6.8,0.8,8.9,0.5
		c-5.4,4.9-19.6,28.8-42.8,71.6c-29.5,54.7-47.2,91.2-53.3,109.5C683.2,563.2,682,568.8,682,573.2z M699.2,480.9
		c-3-3-7.3-4.6-12.8-4.6c-5.5,0-13.2,4.1-23,12.3c-15.7,13.1-28.7,29.2-38.9,48.4c-6.8,12.6-10.2,23-10.2,31.2
		c0,3.7,0.8,7.1,2.3,10.2c1.5,3,3.9,4.6,7.2,4.6c7.9,0,17.8-8.2,29.5-24.6C665,542.1,680.3,516.3,699.2,480.9z"/>
	<path class="st0" d="M750.5,585.8c4.4,0,9.1-2.2,14-6.7c8.7-8.7,19.6-26.3,33-53c1.6-3.5,3.3-4.6,4.9-3.2c0.5,0.5,0.7,1.2,0.7,2.3
		c0,1.1-0.9,3.6-2.8,7.7c-1.9,4.1-3.6,7.8-5.1,11.1c-1.5,3.3-4.4,8.6-8.8,16c-4.3,7.4-8.2,13-11.8,17c-9.6,11-18.7,16.5-27.2,16.5
		c-8.5,0-14.7-2.6-18.4-7.7c-3.7-5.1-5.6-10.9-5.6-17.2c0-6.3,1.5-13.2,4.6-20.7l22.5-57.2c0.5-1.4,0.7-3.3,0.7-5.6
		c0-2.3-1.4-5.4-4.2-9.1l19.3-0.4c5.4,0,8.5,1,9.5,3c0.9,2,0.2,5.1-2.1,9.3l-28.1,65.6c-4,8.7-6,16-6,22.1
		C739.6,582.4,743.2,585.8,750.5,585.8z M784.8,457.1c-3.3,2.8-6.9,4.2-10.9,4.2c-4,0-7.1-1.4-9.5-4.2c-2.3-2.8-3.3-6.2-2.8-10.2
		c0.7-4,2.7-7.4,6-10.2c3.3-2.8,6.9-4.2,10.9-4.2c4,0,7.2,1.4,9.6,4.2c2.5,2.8,3.3,6.2,2.6,10.2
		C790.1,450.9,788.1,454.3,784.8,457.1z"/>
	<path class="st0" d="M963.8,478.5C935.2,529.2,921,562,921,576.7c0,6.6,2.2,9.8,6.7,9.8c5.6,0,12-4.2,19.3-12.6
		c11-13.3,20.6-29.4,28.8-48.1c1.4-3.3,2.8-4.6,4.2-3.9c1.4,0.7,2.1,1.6,2.1,2.8c0,1.2-1.2,4.1-3.5,8.8c-2.3,4.7-4.2,8.4-5.6,11.2
		s-4.5,8.2-9.3,16.1c-4.8,8-8.9,13.8-12.3,17.5c-3.4,3.7-7.7,7.4-13,11.1c-5.3,3.6-11.2,5.4-17.9,5.4s-12.3-3.3-17-9.8
		c-2.1-3-3.2-7.2-3.2-12.5s1.2-11.6,3.5-19.1c2.3-7.5,8.8-19.6,19.3-36.5c2.6-4.2,3.9-7.5,3.9-10c0-2.5-1.9-3.7-5.8-3.7
		c-3.9,0-10.8,4.7-20.9,14c-10.1,9.4-20.6,22-31.8,37.9c-11.1,15.9-17.7,28.7-19.8,38.2c-4,0-6.9-1.6-8.8-4.9
		c-1.9-3.3-2.8-6.1-2.8-8.4c0-9.6,6.4-27.8,19.3-54.7c4.2-8.9,6.4-14.9,6.7-18.1c0.2-3.2-0.2-4.8-1.2-4.9c-1.1-0.1-2.5,0.3-4.4,1.2
		c-4.2,2.1-10.6,7.3-19.3,15.4c-16.4,15-32.5,37.8-48.4,68.4c-1.2,2.6-2.6,4.2-4.4,4.7c-1.8,0.6-5.2,1-10.3,1.2
		c-5.1,0.2-8.5,0.8-10.2,1.8c4.2-8.2,11.6-23.5,22.1-46c18.9-40.2,31.6-63.4,37.9-69.5c2.8-2.8,6.7-4.2,11.6-4.2
		c0.9,0,3.3,0.4,7.2,1.1c3.9,0.7,6.7,0.8,8.6,0.4c-8.7,4.7-22.8,26.7-42.5,66c11-13.6,18.9-22.5,23.7-26.7c4.8-4.2,8.4-7.4,10.7-9.5
		c2.3-2.1,4.1-3.7,5.4-4.9c1.3-1.2,3.2-2.9,5.6-5.1c2.5-2.2,4.3-3.9,5.6-4.9c1.3-1.1,3.1-2.5,5.4-4.4c2.3-1.9,4.1-3.1,5.4-3.7
		c1.3-0.6,3-1.6,5.3-3c2.2-1.4,3.9-2.1,4.9-2.1c1.1,0,2.5-0.3,4.4-0.9c1.9-0.6,3.2-0.4,3.9,0.5c4.7,1.9,7,4.8,7,8.8
		c0,3.5-4,12.5-11.9,27c-8,14.5-13.1,24.1-15.4,28.8c10.3-12.9,20.1-23.4,29.5-31.8c9.4-8.3,20.4-16,33.2-23
		c12.7-7,22-10.5,27.9-10.5C961.7,477.8,962.8,478,963.8,478.5z"/>
	<path class="st0" d="M1112.5,573.2c0,7.5,3,11.2,9.1,11.2c11,0,25.6-18.4,43.9-55.1c0.7-1.4,1.3-2.8,1.9-4.2
		c0.6-1.4,1.5-2.3,2.8-2.8c1.3-0.5,2.2-0.2,2.6,0.9c0.5,1.1,0.2,2.8-0.7,5.1c-18.7,43.5-37.7,65.3-56.8,65.3
		c-6.3,0-11.3-2.8-15.1-8.4c-3.7-5.6-5.6-11.2-5.6-16.7c0-5.5,0.6-10.6,1.8-15.3c-13.6,22.5-25.3,35.2-35.1,38.2
		c-2.8,1.2-5.6,1.8-8.2,1.8c-2.7,0-5.3-0.4-7.9-1.1c-11.5-3-17.2-12.2-17.2-27.4c0-10.3,2.6-21.7,7.9-34.2
		c5.3-12.5,12.7-24.5,22.3-36c9.6-11.5,21.2-19.2,34.7-23.2c4.9-1.6,10.7-2.5,17.4-2.5s14.1,2.1,22.3,6.3
		c15.9-29.9,29.5-57.7,40.7-83.1c3.3-7.7,6.5-12.7,9.6-14.9c3.2-2.2,6.1-3.3,8.8-3.3c2.7,0,4.3,0,4.9,0c0.6,0,2.8,0.3,6.7,0.9
		c3.9,0.6,6.8,0.8,8.9,0.5c-5.4,4.9-19.6,28.8-42.8,71.6c-29.5,54.7-47.2,91.2-53.3,109.5C1113.7,563.2,1112.5,568.8,1112.5,573.2z
		 M1129.7,480.9c-3-3-7.3-4.6-12.8-4.6c-5.5,0-13.2,4.1-23,12.3c-15.7,13.1-28.7,29.2-38.9,48.4c-6.8,12.6-10.2,23-10.2,31.2
		c0,3.7,0.8,7.1,2.3,10.2c1.5,3,3.9,4.6,7.2,4.6c7.9,0,17.8-8.2,29.5-24.6C1095.4,542.1,1110.8,516.3,1129.7,480.9z"/>
	<path class="st0" d="M1256,527.1c-7.7,14.9-12.3,26-13.9,33.3c-1.5,7.4-2.3,13.3-2.3,17.9c0,4.6,1.8,6.8,5.3,6.8
		c4.4,0,9.9-4.1,16.5-12.3c9.6-11.9,19.1-27.5,28.4-46.7c0.9-2.1,2-3.3,3.2-3.5c1.9-0.7,2.8,0,2.8,2.1c0,1.2-0.3,2.6-1.1,4.2
		c-21.5,43.5-39.6,65.3-54.4,65.3c-6.8,0-12.3-3.3-16.5-9.8c-2.1-3.5-3.2-8.2-3.2-14c0-5.8,1.2-13,3.5-21.4
		c-18.7,30.2-34.9,45.3-48.4,45.3c-3.7,0-7.1-1.2-10.2-3.5c-7-4.9-10.5-13.3-10.5-25.3c0-22.9,9.9-46.2,29.8-69.8
		c11.2-13.1,25-21.6,41.4-25.6c4.4-1.2,8.7-1.8,12.6-1.8c10.8,0,19.9,3.7,27.4,11.2c2.3,2.6,3,5,2.1,7.4c-0.9,2.3-2.9,3.3-6,2.8
		c-2.6-8.4-8.2-12.6-16.8-12.6c-10.1,0-22.5,8-37.2,23.9c-8.4,9.4-16.3,20.3-23.5,33c-9.1,15.2-13.7,27.4-13.7,36.5
		c0,9.1,2.9,13.7,8.8,13.7c14,0,32.4-21.5,55.1-64.6c4.4-8.7,8.2-14.6,11.2-17.7c3-3.2,6.9-4.7,11.6-4.7c0.9,0,3.3,0.4,7.2,1.1
		c3.9,0.7,6.7,0.8,8.6,0.4C1269.7,502.7,1263.7,512.2,1256,527.1z"/>
	<path class="st0" d="M1787.9,388c14.5,0,21.8-3.5,21.8-10.5c0-3.5,1.2-5.3,3.7-5.3c2.5,0,3.7,2.9,3.7,8.6c0,5.7-3.3,10.1-9.8,13.2
		c-6.6,3-12.3,4.6-17.4,4.6c-5,0-9.2-0.2-12.5-0.7c-34.4-4.4-63.9-11.9-88.4-22.5c-16.6,26.2-31.5,61-44.6,104.6
		c-4.9,15.7-11.9,32.6-20.9,50.9c-9,18.2-18.7,33.3-29.1,45.1c-10.4,11.8-22.4,21.5-36,28.9c-26.7,14.5-58.1,21.8-94.4,21.8
		c-29.5,0-57.1-7.3-82.8-21.8c-25.3-14.3-40-36.3-44.2-66c-0.5-4-0.7-9.9-0.7-17.7c0-7.8,2.3-19,6.8-33.5
		c4.6-14.5,13.2-25.5,25.8-33c5.1-3,9-4.6,11.6-4.6c4.2,0,6.1,2,5.6,6c-0.9,1.2-3.3,3.1-7.2,5.8c-3.9,2.7-7.5,5.5-11.1,8.4
		c-3.5,2.9-7,7.4-10.5,13.5c-6.1,10.3-9.1,21.9-9.1,34.7c0,29.5,10.1,52.2,30.2,68.1c10.8,8.9,22.8,15.7,36.1,20.3
		c13.3,4.7,26.7,7,40,7c0.5,0,1.1,0,1.8,0c48.4-1.2,88.2-18.7,119.3-52.6c19.6-21.3,46.5-69.3,80.7-144.2
		c11.7-25.7,19.2-40.8,22.5-45.3c-41.4-13.1-78.6-19.6-111.6-19.6c-33,0-59.8,9.9-80.3,29.8c-16.6,15.9-24.9,32.5-24.9,49.8
		c0,18.9,8.3,31,24.9,36.1c5.8,1.6,11.2,2.5,16,2.5c4.8,0,10.3-0.9,16.5-2.6c6.2-1.8,12.2-5.4,17.9-10.9c5.7-5.5,10.1-10.9,13-16.3
		c2.9-5.4,4.1-9.5,3.7-12.3v-0.7c1.9-1.6,3.5-2.2,4.9-1.6c1.4,0.6,2.1,2.1,2.1,4.4c-2.3,18.2-11.6,31.9-27.7,41
		c-9.8,5.9-18.9,8.8-27.4,8.8c-8.4,0-15.9-1.2-22.5-3.5c-19.2-6.8-31.3-19.8-36.5-38.9c-1.6-6.1-2.5-12-2.5-17.9
		c0-14,4.3-27.7,13-41c15.4-23.9,39.6-38.2,72.6-43.2c7.5-1.2,14.6-1.8,21.4-1.8c6.8,0,14.7,0.4,23.7,1.1c9,0.7,20.9,3,35.8,7
		c14.8,4,30.1,8.6,45.6,13.9c15.6,5.3,24.8,8.4,27.9,9.3c11.5-14,20-21.2,25.6-21.4c1.2-0.5,2.7-0.7,4.7-0.7c2,0,3.6,1.6,4.7,4.9
		c1.2,3.3,0.4,5.4-2.5,6.3c-1.2,0.2-2.7,0.1-4.6-0.4c-1.4-0.9-4.3,0.5-8.6,4.4c-4.3,3.9-7.5,7.1-9.6,9.6c22,7,41.3,12.1,57.9,15.3
		C1768.7,386.4,1780.6,388,1787.9,388z"/>
	<path class="st0" d="M1707.9,585.8c4.4,0,9.1-2.2,14-6.7c8.7-8.7,19.6-26.3,33-53c1.6-3.5,3.3-4.6,4.9-3.2c0.5,0.5,0.7,1.2,0.7,2.3
		c0,1.1-0.9,3.6-2.8,7.7c-1.9,4.1-3.6,7.8-5.1,11.1c-1.5,3.3-4.4,8.6-8.8,16c-4.3,7.4-8.2,13-11.8,17c-9.6,11-18.7,16.5-27.2,16.5
		c-8.5,0-14.7-2.6-18.4-7.7c-3.7-5.1-5.6-10.9-5.6-17.2c0-6.3,1.5-13.2,4.6-20.7l22.5-57.2c0.5-1.4,0.7-3.3,0.7-5.6
		c0-2.3-1.4-5.4-4.2-9.1l19.3-0.4c5.4,0,8.5,1,9.5,3c0.9,2,0.2,5.1-2.1,9.3l-28.1,65.6c-4,8.7-6,16-6,22.1
		C1697,582.4,1700.6,585.8,1707.9,585.8z M1742.3,457.1c-3.3,2.8-6.9,4.2-10.9,4.2c-4,0-7.1-1.4-9.5-4.2c-2.3-2.8-3.3-6.2-2.8-10.2
		c0.7-4,2.7-7.4,6-10.2c3.3-2.8,6.9-4.2,10.9-4.2c4,0,7.2,1.4,9.6,4.2c2.5,2.8,3.3,6.2,2.6,10.2
		C1747.5,450.9,1745.5,454.3,1742.3,457.1z"/>
	<path class="st0" d="M1844,527.1c-7.7,14.9-12.3,26-13.9,33.3c-1.5,7.4-2.3,13.3-2.3,17.9c0,4.6,1.8,6.8,5.3,6.8
		c4.4,0,9.9-4.1,16.5-12.3c9.6-11.9,19.1-27.5,28.4-46.7c0.9-2.1,2-3.3,3.2-3.5c1.9-0.7,2.8,0,2.8,2.1c0,1.2-0.4,2.6-1.1,4.2
		c-21.5,43.5-39.6,65.3-54.4,65.3c-6.8,0-12.3-3.3-16.5-9.8c-2.1-3.5-3.2-8.2-3.2-14c0-5.8,1.2-13,3.5-21.4
		c-18.7,30.2-34.9,45.3-48.4,45.3c-3.7,0-7.1-1.2-10.2-3.5c-7-4.9-10.5-13.3-10.5-25.3c0-22.9,9.9-46.2,29.8-69.8
		c11.2-13.1,25-21.6,41.4-25.6c4.4-1.2,8.7-1.8,12.6-1.8c10.8,0,19.9,3.7,27.4,11.2c2.3,2.6,3,5,2.1,7.4c-0.9,2.3-2.9,3.3-6,2.8
		c-2.6-8.4-8.2-12.6-16.8-12.6c-10.1,0-22.5,8-37.2,23.9c-8.4,9.4-16.3,20.3-23.5,33c-9.1,15.2-13.7,27.4-13.7,36.5
		c0,9.1,2.9,13.7,8.8,13.7c14,0,32.4-21.5,55.1-64.6c4.4-8.7,8.2-14.6,11.2-17.7c3-3.2,6.9-4.7,11.6-4.7c0.9,0,3.3,0.4,7.2,1.1
		c3.9,0.7,6.7,0.8,8.6,0.4C1857.7,502.7,1851.7,512.2,1844,527.1z"/>
</g>
<g>
	<path class="st0" d="M386.2,670.7l-6.9,2.4c-0.8-2.6-1.9-4.5-3.2-5.7s-3.1-1.8-5.4-1.8c-2.1,0-3.7,0.6-4.9,1.9
		c-1.1,1.2-1.7,2.7-1.7,4.3c0,1.8,0.6,3.2,1.9,4.3c1.3,1.1,3.9,2.3,7.7,3.8c3.3,1.3,5.8,2.5,7.6,3.6c1.8,1.1,3.2,2.7,4.3,4.6
		c1.1,1.9,1.7,4.1,1.7,6.6c0,4.1-1.4,7.5-4.3,10.4c-2.9,2.9-6.9,4.3-12.1,4.3c-9,0-14.5-4.5-16.6-13.6l7.2-2c1.3,6,4.5,9,9.8,9
		c2.6,0,4.5-0.7,5.9-2c1.3-1.3,2-3,2-5c0-1.4-0.5-2.8-1.4-4c-0.9-1.2-3.2-2.5-6.9-3.9c-3.9-1.5-6.7-2.7-8.4-3.7
		c-1.7-1-3.2-2.5-4.4-4.5c-1.2-2-1.8-4.3-1.8-6.8c0-3.9,1.3-7.1,4-9.7c2.7-2.6,6.3-3.9,10.7-3.9C379,658.9,384,662.8,386.2,670.7z"
		/>
	<path class="st0" d="M394.5,659.8h27.8v6.4h-19.8v13.9h15.5v6.5h-15.5v15.2h20.1v6.6h-28.1V659.8z"/>
	<path class="st0" d="M427.6,659.8h7.9v30.1c0,3.4,0.2,5.8,0.5,7.4c0.4,1.6,1.2,2.9,2.4,3.8c1.3,0.9,3,1.4,5.1,1.4
		c2,0,3.6-0.4,4.8-1.2c1.1-0.8,1.9-1.9,2.4-3.3c0.5-1.4,0.7-4.2,0.7-8.4v-29.9h7.2v29.6c0,4.7-0.3,8.4-1,10.9
		c-0.7,2.6-2.2,4.7-4.7,6.4c-2.5,1.7-5.7,2.5-9.9,2.5c-3.2,0-6-0.5-8.3-1.6c-2.4-1.1-4.1-2.8-5.3-5.1c-1.2-2.4-1.8-6.6-1.8-12.6
		V659.8z"/>
	<path class="st0" d="M486.4,659.8h8V690c0,5-0.3,8.7-0.9,11.2c-0.6,2.4-1.8,4.4-3.7,5.9c-1.9,1.5-4.6,2.2-8.1,2.2
		c-1.8,0-3.9-0.3-6.4-0.9v-6.6c1.7,0.5,3.2,0.7,4.7,0.7c1.7,0,3-0.3,3.9-1c0.9-0.6,1.5-1.6,1.8-2.9c0.3-1.3,0.5-4.1,0.5-8.5V659.8z"
		/>
	<path class="st0" d="M512.2,659.8h9l13,48.5h-8.1l-3-12.1h-14.2l-3,12.1h-7.7L512.2,659.8z M521.5,689.8l-5.6-22.2l-5.5,22.2H521.5
		z"/>
	<path class="st0" d="M539,659.8h14.6c5.3,0,9.2,1.2,11.7,3.6c2.5,2.4,3.8,5.8,3.8,10.3c0,6-2.5,10.2-7.4,12.7l9.2,21.9h-8.7
		l-7.5-20.2h-7.6v20.2h-8V659.8z M547.1,666v15.8h6.1c2.7,0,4.8-0.8,6.1-2.3c1.3-1.5,1.9-3.5,1.9-5.9c0-5.1-2.6-7.6-7.9-7.6H547.1z"
		/>
	<path class="st0" d="M577.4,659.8h10.9c5.3,0,9.5,0.9,12.7,2.8c3.2,1.9,5.6,4.7,7.2,8.3c1.6,3.7,2.4,7.8,2.4,12.3
		c0,4.7-0.7,9-2.2,12.7c-1.5,3.7-3.7,6.7-6.7,9c-3,2.3-7.3,3.4-12.8,3.4h-11.5V659.8z M585.5,666.3v35.6h3.3c4.7,0,8.1-1.6,10.2-4.8
		c2.1-3.2,3.2-7.5,3.2-12.9c0-11.9-4.4-17.8-13.3-17.8H585.5z"/>
	<path class="st0" d="M618.3,659.8h8v48.5h-8V659.8z"/>
	<path class="st0" d="M635.5,659.8h11.9l9.7,35l9.9-35h11.4v48.5h-7.5v-41.4l-11.5,41.4h-5.8l-11.3-41.4v41.4h-6.7V659.8z"/>
	<path class="st0" d="M696.3,659.8h8.4l9.2,38.7l9.3-38.7h7.1l-12.8,48.6l-8.7-0.1L696.3,659.8z"/>
	<path class="st0" d="M734.7,659.8h8v48.5h-8V659.8z"/>
	<path class="st0" d="M752.1,659.8h14.6c5.3,0,9.2,1.2,11.7,3.6c2.5,2.4,3.8,5.8,3.8,10.3c0,6-2.5,10.2-7.4,12.7l9.2,21.9h-8.7
		l-7.5-20.2h-7.6v20.2h-8V659.8z M760.1,666v15.8h6.1c2.7,0,4.8-0.8,6.1-2.3c1.3-1.5,1.9-3.5,1.9-5.9c0-5.1-2.6-7.6-7.9-7.6H760.1z"
		/>
	<path class="st0" d="M785.6,659.8h29.6v6.8h-10.8v41.7h-8v-41.7h-10.8V659.8z"/>
	<path class="st0" d="M818.3,659.8h7.9v30.1c0,3.4,0.2,5.8,0.5,7.4c0.4,1.6,1.2,2.9,2.4,3.8c1.3,0.9,3,1.4,5.1,1.4
		c2,0,3.6-0.4,4.8-1.2c1.1-0.8,1.9-1.9,2.4-3.3c0.5-1.4,0.7-4.2,0.7-8.4v-29.9h7.2v29.6c0,4.7-0.3,8.4-1,10.9
		c-0.7,2.6-2.2,4.7-4.7,6.4c-2.5,1.7-5.7,2.5-9.9,2.5c-3.2,0-6-0.5-8.3-1.6c-2.4-1.1-4.1-2.8-5.3-5.1c-1.2-2.4-1.8-6.6-1.8-12.6
		V659.8z"/>
	<path class="st0" d="M867,659.8h9l13,48.5h-8.1l-3-12.1h-14.2l-3,12.1h-7.7L867,659.8z M876.2,689.8l-5.6-22.2l-5.5,22.2H876.2z"/>
	<path class="st0" d="M893.8,659.8h8v41.7H919v6.8h-25.2V659.8z"/>
	<path class="st0" d="M937.1,659.8H948c5.3,0,9.5,0.9,12.7,2.8c3.2,1.9,5.6,4.7,7.2,8.3c1.6,3.7,2.4,7.8,2.4,12.3
		c0,4.7-0.7,9-2.2,12.7c-1.5,3.7-3.7,6.7-6.7,9c-3,2.3-7.3,3.4-12.8,3.4h-11.5V659.8z M945.1,666.3v35.6h3.3c4.7,0,8.1-1.6,10.2-4.8
		c2.1-3.2,3.2-7.5,3.2-12.9c0-11.9-4.4-17.8-13.3-17.8H945.1z"/>
	<path class="st0" d="M978,659.8h27.8v6.4H986v13.9h15.5v6.5H986v15.2h20.1v6.6H978V659.8z"/>
	<path class="st0" d="M1040.3,670.7l-6.9,2.4c-0.8-2.6-1.9-4.5-3.2-5.7s-3.1-1.8-5.4-1.8c-2.1,0-3.7,0.6-4.9,1.9
		c-1.1,1.2-1.7,2.7-1.7,4.3c0,1.8,0.6,3.2,1.9,4.3c1.3,1.1,3.9,2.3,7.7,3.8c3.3,1.3,5.8,2.5,7.6,3.6c1.8,1.1,3.2,2.7,4.3,4.6
		c1.1,1.9,1.7,4.1,1.7,6.6c0,4.1-1.4,7.5-4.3,10.4c-2.9,2.9-6.9,4.3-12.1,4.3c-9,0-14.5-4.5-16.6-13.6l7.2-2c1.3,6,4.5,9,9.8,9
		c2.6,0,4.5-0.7,5.9-2c1.3-1.3,2-3,2-5c0-1.4-0.5-2.8-1.4-4c-0.9-1.2-3.2-2.5-6.9-3.9c-3.9-1.5-6.7-2.7-8.4-3.7
		c-1.7-1-3.2-2.5-4.4-4.5c-1.2-2-1.8-4.3-1.8-6.8c0-3.9,1.3-7.1,4-9.7c2.7-2.6,6.3-3.9,10.7-3.9
		C1033.1,658.9,1038.1,662.8,1040.3,670.7z"/>
	<path class="st0" d="M1048.6,659.8h10.9c5.3,0,9.5,0.9,12.7,2.8c3.2,1.9,5.6,4.7,7.2,8.3c1.6,3.7,2.4,7.8,2.4,12.3
		c0,4.7-0.7,9-2.2,12.7c-1.5,3.7-3.7,6.7-6.7,9c-3,2.3-7.3,3.4-12.8,3.4h-11.5V659.8z M1056.7,666.3v35.6h3.3
		c4.7,0,8.1-1.6,10.2-4.8c2.1-3.2,3.2-7.5,3.2-12.9c0-11.9-4.4-17.8-13.3-17.8H1056.7z"/>
	<path class="st0" d="M1089.5,659.8h27.8v6.4h-19.8v13.9h15.5v6.5h-15.5v15.2h20.1v6.6h-28.1V659.8z"/>
	<path class="st0" d="M1141.5,675.4l-7.2-1.5c0.9-4.9,2.6-8.6,5.3-11.1c2.7-2.5,6.1-3.8,10.3-3.8c4.5,0,8.1,1.3,10.7,4
		c2.6,2.7,3.9,6.1,3.9,10.3c0,4.8-1.9,9.4-5.6,13.8c-3.7,4.4-9.1,9.1-16.1,14.3h21.9l-0.4,7h-30.1v-7c9.4-8.1,15.4-14,18-17.7
		c2.6-3.7,3.9-7,3.9-10c0-2.4-0.6-4.3-1.8-5.8c-1.2-1.5-2.9-2.3-4.9-2.3C1145,665.6,1142.4,668.9,1141.5,675.4z"/>
	<path class="st0" d="M1203.4,683.5c0,9-1.3,15.6-4,19.6c-2.7,4-6.6,6.1-11.8,6.1c-10.5,0-15.8-8.2-15.8-24.5c0-9.1,1.4-15.6,4-19.7
		c2.7-4,6.6-6.1,11.8-6.1C1198.2,658.9,1203.4,667.1,1203.4,683.5z M1195.2,684c0-7.1-0.6-12.1-1.9-14.9c-1.3-2.8-3.1-4.3-5.6-4.3
		c-2.5,0-4.3,1.4-5.6,4.2c-1.3,2.8-1.9,7.8-1.9,15c0,7.7,0.7,12.9,2.1,15.4c1.4,2.5,3.2,3.8,5.4,3.8c2.5,0,4.4-1.4,5.7-4.3
		C1194.5,696,1195.2,691.1,1195.2,684z"/>
	<path class="st0" d="M1215.8,675.4l-7.2-1.5c0.9-4.9,2.6-8.6,5.3-11.1c2.7-2.5,6.1-3.8,10.3-3.8c4.5,0,8.1,1.3,10.7,4
		c2.6,2.7,3.9,6.1,3.9,10.3c0,4.8-1.9,9.4-5.6,13.8c-3.7,4.4-9.1,9.1-16.1,14.3h21.9l-0.4,7h-30.1v-7c9.4-8.1,15.4-14,18-17.7
		c2.6-3.7,3.9-7,3.9-10c0-2.4-0.6-4.3-1.8-5.8c-1.2-1.5-2.9-2.3-4.9-2.3C1219.3,665.6,1216.7,668.9,1215.8,675.4z"/>
	<path class="st0" d="M1277.8,683.5c0,9-1.3,15.6-4,19.6c-2.7,4-6.6,6.1-11.8,6.1c-10.5,0-15.8-8.2-15.8-24.5c0-9.1,1.4-15.6,4-19.7
		c2.7-4,6.6-6.1,11.8-6.1C1272.5,658.9,1277.8,667.1,1277.8,683.5z M1269.5,684c0-7.1-0.6-12.1-1.9-14.9c-1.3-2.8-3.1-4.3-5.6-4.3
		c-2.5,0-4.3,1.4-5.6,4.2c-1.3,2.8-1.9,7.8-1.9,15c0,7.7,0.7,12.9,2.1,15.4c1.4,2.5,3.2,3.8,5.4,3.8c2.5,0,4.4-1.4,5.7-4.3
		C1268.9,696,1269.5,691.1,1269.5,684z"/>
</g>
</svg>
